<svg width="40" height="36" viewBox="0 0 40 36" fill="none" xmlns="http://www.w3.org/2000/svg">
<path d="M34.5455 33.9061C34.5455 34.3883 34.3539 34.8508 34.0129 35.1918C33.6719 35.5327 33.2095 35.7243 32.7273 35.7243H7.27273C6.79052 35.7243 6.32805 35.5327 5.98708 35.1918C5.6461 34.8508 5.45455 34.3883 5.45455 33.9061V17.5425H0L18.7764 0.473377C19.1111 0.168791 19.5474 0 20 0C20.4526 0 20.8889 0.168791 21.2236 0.473377L40 17.5425H34.5455V33.9061ZM30.9091 32.0879V14.1916L20 4.2752L9.09091 14.1916V32.0879H30.9091ZM20 28.4516L13.8927 22.3443C13.5128 21.9644 13.2115 21.5134 13.0059 21.0171C12.8003 20.5208 12.6945 19.9888 12.6945 19.4516C12.6945 18.9143 12.8003 18.3824 13.0059 17.886C13.2115 17.3897 13.5128 16.9387 13.8927 16.5588C14.2726 16.179 14.7236 15.8776 15.2199 15.672C15.7163 15.4664 16.2482 15.3606 16.7855 15.3606C17.3227 15.3606 17.8547 15.4664 18.351 15.672C18.8473 15.8776 19.2983 16.179 19.6782 16.5588L20 16.8806L20.3218 16.5588C20.7017 16.179 21.1527 15.8776 21.649 15.672C22.1453 15.4664 22.6773 15.3606 23.2145 15.3606C23.7518 15.3606 24.2837 15.4664 24.7801 15.672C25.2764 15.8776 25.7274 16.179 26.1073 16.5588C26.4872 16.9387 26.7885 17.3897 26.9941 17.886C27.1997 18.3824 27.3055 18.9143 27.3055 19.4516C27.3055 19.9888 27.1997 20.5208 26.9941 21.0171C26.7885 21.5134 26.4872 21.9644 26.1073 22.3443L20 28.4516Z" fill="white"/>
</svg>
