<svg width="256" height="252" viewBox="0 0 256 252" fill="none" xmlns="http://www.w3.org/2000/svg">
<path d="M127.512 1.79724C125.802 3.59442 110.11 17.4459 106.998 19.9006L105.332 21.2594L106.822 22.8812C107.655 23.7579 108.62 24.5031 109.014 24.5031C109.935 24.5031 110.241 27.9221 110.241 37.8724V45.8063L113.003 45.6309C114.493 45.5433 115.808 45.3679 115.896 45.2803C115.984 45.1926 116.071 39.5381 116.027 32.7438L115.984 20.3389L122.559 14.509L129.134 8.67913L135.709 14.7282L142.328 20.8211L142.24 33.1822L142.196 45.5433H145.002H147.807L148.114 42.8694C148.245 41.3791 148.377 36.6889 148.377 32.4808V24.8538L150.349 23.1004C151.445 22.1361 152.322 21.0841 152.322 20.7772C152.322 20.4704 151.796 19.8567 151.138 19.4184C149.779 18.5417 138.777 8.8983 132.991 3.50675L129.221 5.34058e-05L127.512 1.79724Z" fill="#324F5D"/>
<path d="M106.954 6.13681C100.028 7.36416 90.6919 9.77501 86.2208 11.5284C84.1168 12.3174 82.0566 13.1502 81.6183 13.2817C81.18 13.4132 80.8731 13.8077 80.9608 14.1145C81.2238 14.9474 84.862 16.6131 86.44 16.6131C87.2728 16.6131 88.5879 16.8761 89.4207 17.2267C90.8672 17.8404 91.3932 17.7527 98.2751 15.9994C102.352 14.9474 106.253 13.8077 106.954 13.4132C108.182 12.7995 114.625 6.09298 114.625 5.47931C114.625 5.04097 111.995 5.26014 106.954 6.13681Z" fill="#324F5D"/>
<path d="M144.169 6.88193C145.44 9.38045 149.648 13.5008 151.358 13.9392C152.278 14.2022 155.96 15.1227 159.555 15.9993C163.193 16.876 167.05 18.1034 168.19 18.6732L170.206 19.769L173.713 17.0075C175.642 15.4733 177.264 14.0707 177.264 13.8515C177.307 13.457 176.343 13.0625 169.943 10.8708C163.763 8.76678 152.454 6.26826 147.369 5.82992L143.468 5.52309L144.169 6.88193Z" fill="#324F5D"/>
<path d="M127.424 16.0431C127.118 16.1746 126.592 16.8321 126.197 17.5334C124.97 19.9881 126.548 23.188 129.002 23.188C130.142 23.188 132.115 21.5661 132.641 20.2511C133.605 17.7088 130.186 14.9034 127.424 16.0431Z" fill="#324F5D"/>
<path d="M74.5173 19.1553C73.0708 20.5142 69.2134 23.9332 65.9697 26.7385C62.726 29.5439 59.6577 32.2616 59.1755 32.7876L58.2988 33.7958L59.7453 34.9354L61.1919 36.119L61.3672 40.9407C61.4549 43.6145 61.5425 47.7787 61.5425 50.2334L61.5864 54.7483H64.2164H66.8026L67.1094 53.1703C67.2847 52.2936 67.2847 47.5157 67.1532 42.5187L66.9341 33.4889L71.9311 28.6672L76.9282 23.8455L82.2759 28.5796L87.6236 33.3136L87.6674 43.9214V54.5291L90.4289 54.6606L93.1466 54.7921V45.9815V37.171L95.0315 35.4176L96.8725 33.6643L95.7328 32.6999C95.1191 32.1739 93.9356 31.2096 93.1028 30.5959L91.6124 29.4124V25.2482V21.084L89.2893 20.7772C87.9742 20.6018 86.8346 20.6018 86.7031 20.7333C86.5277 20.8648 86.4401 21.873 86.4839 22.9688V24.9414L84.4675 23.2319C83.3279 22.2675 81.3115 20.3827 79.9965 19.0676C78.6815 17.7088 77.498 16.613 77.3665 16.613C77.235 16.6568 75.9638 17.7526 74.5173 19.1553Z" fill="#324F5D"/>
<path d="M178.403 18.98C177.22 19.9443 174.151 22.5743 171.609 24.7222C169.067 26.9139 165.691 29.7631 164.07 31.0781C162.448 32.3931 161.089 33.7081 161.089 33.9711C161.089 34.5409 162.316 35.6806 163.412 36.0313C164.07 36.2943 164.157 37.1271 164.157 45.5432V54.7483H166.743C169.023 54.7483 169.33 54.6606 169.593 53.7401C169.724 53.2141 169.856 48.3047 169.856 42.8693V33.0068L174.151 29.4562C176.474 27.5276 178.754 25.5112 179.192 25.029C180.025 24.1085 180.069 24.1524 185.504 29.0179L190.983 33.9273L190.677 38.486C190.545 40.9845 190.545 45.6747 190.72 48.9184L191.027 54.7921L193.482 54.6606L195.937 54.5291L196.068 45.587L196.156 36.6888L197.471 35.4615C198.216 34.7601 198.786 34.0149 198.786 33.7081C198.786 33.4451 197.515 31.9986 195.98 30.5082L193.175 27.7906L193.526 25.3797C193.701 24.0647 193.964 22.0483 194.096 20.9087L194.271 18.8485L191.816 18.5855C190.457 18.4101 189.099 18.2786 188.748 18.2348C188.266 18.1471 188.134 18.7608 188.222 20.9525L188.353 23.7579L186.644 22.399C185.723 21.6977 184.277 20.3388 183.444 19.4622C181.033 16.9636 180.858 16.9198 178.403 18.98Z" fill="#324F5D"/>
<path d="M119.008 24.9414V27.5714H121.638H124.312L124.181 25.0291L124.049 22.5305L121.551 22.399L119.008 22.2675V24.9414Z" fill="#324F5D"/>
<path d="M134.964 22.925C134.832 23.2757 134.789 24.2839 134.876 25.2044C135.008 26.9139 135.008 26.9139 137.112 27.0454L139.172 27.1769V24.766V22.3113H137.199C135.884 22.3113 135.139 22.5305 134.964 22.925Z" fill="#324F5D"/>
<path d="M198.786 26.1687C198.786 26.6509 199.706 28.3604 200.802 30.0261C202.906 33.1821 202.994 33.6643 202.029 37.7408C201.81 38.749 201.986 39.012 203.432 39.7572C205.58 40.853 209.656 44.5351 211.059 46.5953C212.067 47.9979 212.286 48.1294 213.908 47.8664C215.486 47.6473 215.881 47.8226 217.853 49.4444C219.037 50.4526 220.22 51.2416 220.483 51.2855C220.702 51.2855 222.061 51.2855 223.464 51.2416C225.787 51.1978 226.094 51.2855 227.365 52.6443L228.768 54.0908L227.979 52.7758C225.174 48.2609 216.056 38.7052 209.744 33.6643C201.635 27.2208 198.786 25.2482 198.786 26.1687Z" fill="#324F5D"/>
<path d="M53.4768 30.0262C46.4195 35.4616 40.2828 41.0723 34.4968 47.209C28.886 53.1266 26.6067 56.1511 24.1082 60.929L22.4863 63.9973L24.415 62.8138C25.4232 62.2001 27.9655 60.0523 30.0257 58.0798C32.0859 56.1072 34.6283 53.8279 35.7241 52.9951C36.8199 52.1622 38.5733 50.7157 39.6253 49.7952C41.291 48.3048 41.6855 48.0857 43.0882 48.3048C44.5347 48.5679 44.7977 48.3925 47.7345 45.4118C49.4441 43.6585 51.8549 41.4668 53.0384 40.5024C54.2658 39.5819 55.3616 38.6614 55.5808 38.5299C55.7561 38.3546 55.6246 37.5218 55.2301 36.6451C53.9151 33.5329 54.3534 31.9987 57.5533 28.0537C58.3861 27.0455 58.8683 26.2565 58.6491 26.2565C58.4738 26.2565 56.1506 27.966 53.4768 30.0262Z" fill="#324F5D"/>
<path d="M179.192 30.2014C177.22 30.9905 176.782 33.3575 178.228 35.1985C179.981 37.3902 183.444 35.9437 183.444 32.963C183.444 31.8233 181.647 29.7631 180.727 29.8069C180.42 29.8069 179.718 29.9823 179.192 30.2014Z" fill="#324F5D"/>
<path d="M75.0433 30.9904C74.0351 32.0863 74.1228 33.9273 75.2186 34.9793C76.7528 36.382 77.8048 36.4258 79.1637 35.0231C80.654 33.5328 80.7417 32.8753 79.5143 31.3411C78.4185 29.9384 76.1391 29.7631 75.0433 30.9904Z" fill="#324F5D"/>
<path d="M124.488 36.6449C124.532 39.4941 124.575 42.694 124.619 43.7898L124.707 45.7623H129.31H133.912L133.824 38.7489L133.693 31.7355L129.09 31.604L124.488 31.4725V36.6449Z" fill="#324F5D"/>
<path d="M69.3891 36.119C68.7754 37.4778 69.1699 37.9162 71.3616 38.3107C72.9396 38.6175 72.9834 38.5737 72.9834 37.3463C72.9834 35.8121 72.2821 35.0231 70.9233 35.0231C70.2657 35.0231 69.7397 35.4176 69.3891 36.119Z" fill="#324F5D"/>
<path d="M82.7582 35.33C81.6624 35.5492 80.9172 37.434 81.6185 38.1354C81.8815 38.3984 82.9335 38.5299 83.9855 38.4422C85.8704 38.3107 85.9142 38.2669 85.9142 36.7765C85.9142 35.4615 85.7827 35.2423 84.8184 35.1985C84.2047 35.1547 83.2842 35.1985 82.7582 35.33Z" fill="#324F5D"/>
<path d="M172.354 35.33C171.828 35.8122 172.003 37.5217 172.617 38.0038C173.362 38.6175 175.992 38.1353 175.992 37.3463C175.992 36.0313 175.072 35.0232 173.844 35.0232C173.187 35.0232 172.485 35.1547 172.354 35.33Z" fill="#324F5D"/>
<path d="M185.197 35.6369C184.934 35.9875 184.759 36.7327 184.847 37.3026C184.934 38.1354 185.285 38.3107 186.863 38.4422L188.704 38.5737V36.8204C188.704 35.067 188.66 35.0232 187.214 35.0232C186.425 35.0232 185.504 35.33 185.197 35.6369Z" fill="#324F5D"/>
<path d="M73.4214 46.4638C73.4214 48.7869 73.5529 51.5923 73.6844 52.732L73.9912 54.7483H77.3664C81.443 54.7483 81.3115 55.0552 81.3115 47.6473V42.5187L77.3664 42.3872L73.4214 42.2557V46.4638Z" fill="#324F5D"/>
<path d="M176.431 47.735C176.431 55.4059 176.212 55.0114 180.376 54.836L183.882 54.6607V50.6718C183.882 48.4363 184.014 45.6309 184.145 44.4474L184.408 42.2557H180.42H176.431V47.735Z" fill="#324F5D"/>
<path d="M209.613 56.151C207.289 58.1673 202.994 61.8493 200.101 64.3479L194.797 68.8627L195.761 69.9148C196.287 70.4846 197.076 71.0544 197.515 71.1859C198.26 71.4489 198.347 72.1941 198.435 80.7417L198.567 89.9906L200.977 89.8591C202.292 89.8153 203.476 89.6399 203.607 89.5084C203.739 89.4208 203.87 84.5552 203.914 78.7253L204.046 68.1176L207.421 65.1369C209.306 63.515 211.498 61.4987 212.287 60.6658L213.733 59.1317L218.642 63.5589C221.316 65.9697 223.683 68.3367 223.859 68.7312C223.99 69.1696 224.122 73.9913 224.078 79.4267C224.078 84.9059 224.122 89.4646 224.253 89.5523C224.341 89.6399 225.524 89.8153 226.839 89.8591L229.25 90.0344L229.557 80.7417L229.864 71.4489L231.267 70.1778L232.713 68.8627L229.557 65.8821L226.357 62.8575L226.883 59.0002C227.497 54.4853 227.365 54.2661 224.253 53.9593C221.842 53.7401 221.755 53.8278 221.492 57.2468L221.36 58.6933L217.678 55.625C215.662 53.9155 213.952 52.5566 213.908 52.5566C213.908 52.5566 211.936 54.1785 209.613 56.151Z" fill="#324F5D"/>
<path d="M42.0364 53.9155C41.598 54.4415 39.757 55.9318 38.0037 57.2468C36.2503 58.5618 33.182 61.1919 31.1656 63.0329C29.1931 64.9177 27.0453 66.8026 26.3878 67.2409C24.9412 68.1614 24.8974 68.5559 26.3001 70.3531C27.3521 71.7119 27.3959 72.0626 27.4398 78.0678C27.4836 81.5307 27.6151 85.6072 27.7904 87.1852L28.0534 89.9906L30.4643 89.8591C31.7793 89.8153 32.9628 89.6399 33.0505 89.5523C33.182 89.4646 33.3135 84.6867 33.3573 78.9445L33.445 68.5559L38.179 64.0849L42.9131 59.57L44.2281 60.7974C44.9732 61.4987 47.2526 63.5589 49.3128 65.4437L53.0386 68.8628V79.076C53.0386 84.6867 53.1263 89.4208 53.2578 89.5084C53.3893 89.6399 54.5728 89.8153 55.8878 89.8591L58.2987 89.9906L58.4302 81.3115L58.5179 72.6325L60.052 71.1859C60.8849 70.3969 61.5862 69.5641 61.5862 69.3011C61.5862 69.0381 60.2712 67.6354 58.6494 66.1889L55.7125 63.5589V59.044L55.6687 54.5291L52.951 54.3976L50.1895 54.2661V56.5016V58.781L47.0334 55.888C45.2801 54.31 43.6582 52.995 43.3514 52.995C43.0884 52.995 42.5186 53.4333 42.0364 53.9155Z" fill="#324F5D"/>
<path d="M119.885 54.3538C116.466 54.7483 111.995 55.8442 107.217 57.3784C97.6616 60.4467 89.8592 65.2684 81.5308 73.2023C73.29 81.1801 67.8985 89.6838 64.5233 100.116C62.2439 107.217 61.5864 111.338 61.5864 118.57C61.5864 137.068 66.9341 150.569 79.0761 162.579C91.1742 174.546 103.754 181.077 119.447 183.576C123.567 184.233 135.183 184.145 140.049 183.444C150.174 181.91 162.886 176.606 170.82 170.688C180.946 163.061 189.669 151.489 193.701 140.268C196.068 133.693 197.339 122.515 196.594 114.801C195.586 103.711 193.088 95.7767 187.915 86.8784C180.376 73.9913 166.13 62.0247 152.98 57.5975C144.432 54.7045 141.802 54.2662 132.159 54.0908C127.205 54.0032 121.682 54.1347 119.885 54.3538ZM140.136 62.5946C152.498 64.7424 162.404 69.9586 171.653 79.2514C180.332 87.9743 185.943 98.845 187.915 110.592C188.792 115.853 188.573 127.03 187.521 131.896C185.899 139.084 183.532 144.739 179.499 150.919C177.439 154.119 172.267 159.949 171.565 159.949C171.127 159.949 171.039 123.523 171.434 121.945C171.697 121.025 171.784 120.981 173.231 121.595C174.721 122.208 174.765 122.208 177.001 120.499C178.272 119.578 179.718 118.614 180.288 118.439C181.121 118.088 180.726 117.65 176.036 113.792C173.187 111.425 168.935 107.524 166.568 105.113L162.272 100.774L162.492 91.3495L162.711 81.9252L158.284 81.9691C155.829 81.9691 152.892 82.1444 151.665 82.2759C149.736 82.5389 149.473 82.7142 149.341 83.6786C149.078 85.9579 148.772 86.7469 148.114 86.7469C147.281 86.7469 137.594 78.4624 133.035 73.8598C131.238 72.0188 129.616 70.5285 129.397 70.5285C129.178 70.5285 128.038 71.6243 126.811 72.9832C125.584 74.2982 121.595 78.0679 117.957 81.3116C114.318 84.5553 109.058 89.2893 106.253 91.9193C87.8866 108.971 84.2484 112.302 81.0924 115.02C79.1637 116.685 77.5419 118.132 77.4981 118.263C77.4542 118.395 78.7254 119.359 80.3034 120.411C83.1088 122.252 83.6786 122.384 85.7826 121.595C86.3525 121.376 86.3963 124.926 86.1333 155.347L86.0895 159.292L83.4594 156.443C79.4267 152.059 77.0159 148.728 75.1749 144.87C69.1258 132.378 67.8546 118.395 71.449 104.456C72.5887 100.204 75.3502 93.4973 77.2789 90.3413C84.38 78.813 98.7136 67.8108 111.338 64.1726C120.148 61.6741 131.151 61.0604 140.136 62.5946ZM129.792 83.0211C129.923 83.3717 132.948 86.2648 136.454 89.4208C140.005 92.5768 147.457 99.6779 152.98 105.201L163.061 115.195L162.93 141.013L162.842 166.831L159.599 168.672C157.845 169.68 154.733 171.171 152.673 172.003C148.947 173.538 139.654 175.905 139.172 175.466C139.041 175.335 139.041 169.373 139.128 162.229L139.26 149.21L134.131 144.914L129.003 140.662L127.425 141.934C126.548 142.635 124.356 144.476 122.559 146.098C120.806 147.676 119.184 148.991 118.965 148.991C118.746 148.991 118.57 154.952 118.57 162.185V175.379L116.51 175.072C111.645 174.371 102.264 170.776 97.9246 167.971L95.3384 166.305L95.2507 140.443L95.1192 114.581L99.5026 110.242C101.913 107.875 108.532 101.65 114.187 96.4342C119.841 91.218 125.452 85.9579 126.679 84.7306C129.134 82.2759 129.441 82.0567 129.792 83.0211Z" fill="#324F5D"/>
<path d="M125.584 97.7492C121.2 99.5902 119.053 105.42 121.069 110.023C123.129 114.713 129.353 116.116 134.087 112.959C138.953 109.76 139.128 102.22 134.438 98.6697C133.167 97.7054 132.378 97.4862 129.792 97.3985C128.082 97.3109 126.197 97.4862 125.584 97.7492Z" fill="#324F5D"/>
<path d="M110.023 121.463C107.875 121.682 105.552 121.77 104.938 121.682L103.755 121.551L103.492 125.627C103.097 130.624 103.492 133.824 104.412 133.474C104.763 133.342 107.305 133.211 110.067 133.211H115.064V127.074C115.064 122.428 114.932 120.937 114.538 120.981C114.231 121.025 112.215 121.244 110.023 121.463Z" fill="#324F5D"/>
<path d="M143.117 127.162V133.43L149.035 133.298L154.952 133.167V127.03V120.937H149.035H143.117V127.162Z" fill="#324F5D"/>
<path d="M230.171 57.203C230.741 60.9289 231.267 62.1563 233.634 64.7863C234.949 66.2766 236.045 67.8108 236.088 68.2491C236.22 70.0902 235.913 71.3175 234.773 73.3777C234.116 74.5612 233.678 75.9639 233.765 76.446C233.853 76.9282 235.036 79.6897 236.395 82.5828C237.71 85.4758 239.332 89.4208 239.99 91.3495L241.173 94.8562L244.504 94.9877C248.712 95.163 248.756 95.2507 248.932 101.694C249.063 106.034 249.151 106.604 250.071 107.568C251.342 108.927 252.263 108.971 252.263 107.656C252.263 105.201 250.816 98.3191 249.238 93.5412C245.469 81.8814 240.121 70.4847 234.335 61.7618C229.864 55.0552 229.864 55.099 230.171 57.203Z" fill="#324F5D"/>
<path d="M211.76 66.8025C210.314 69.038 211.234 71.0982 213.996 71.6681C215.092 71.8872 215.486 71.7119 216.275 70.7476C216.757 70.0901 217.196 69.0819 217.196 68.512C217.196 65.9697 213.163 64.6985 211.76 66.8025Z" fill="#324F5D"/>
<path d="M41.0284 67.0655C40.5024 67.6354 40.1079 68.512 40.1079 69.0381C40.1079 70.1339 41.5106 71.6681 42.8256 72.1064C43.9214 72.4571 45.7186 71.2297 46.2885 69.7832C47.3405 67.0217 43.0886 64.8739 41.0284 67.0655Z" fill="#324F5D"/>
<path d="M18.0157 71.0545C13.6324 79.2514 9.68732 90.1222 7.49563 99.9409C6.88196 102.746 6.35596 105.376 6.35596 105.771C6.35596 107.261 7.89014 106.297 11.6598 102.396C15.2542 98.7136 15.6487 98.0999 16.5692 95.0754C17.8404 91.0865 20.3827 84.3361 21.8731 80.9171C23.3634 77.6296 23.3196 76.0954 21.6539 72.5449C20.6896 70.4847 20.3389 69.1697 20.4704 68.1177C20.5581 67.2848 20.6019 66.5835 20.5581 66.5835C20.4704 66.5835 19.3307 68.5998 18.0157 71.0545Z" fill="#324F5D"/>
<path d="M205.975 71.1859C205.537 72.9393 206.019 73.5968 207.772 73.5968C209.569 73.5968 210.095 72.764 209.394 71.1421C208.693 69.6079 206.369 69.6518 205.975 71.1859Z" fill="#324F5D"/>
<path d="M218.949 71.2298C218.336 72.764 218.862 73.2461 220.746 73.0708C222.061 72.9393 222.237 72.8078 222.237 71.6243C222.237 70.4408 222.061 70.3093 220.79 70.1778C219.607 70.0463 219.3 70.2216 218.949 71.2298Z" fill="#324F5D"/>
<path d="M36.1626 72.0627C36.1626 73.3339 37.2584 73.9914 38.0474 73.2024C38.6611 72.5887 37.9598 71.2737 36.8639 71.0545C36.3818 70.923 36.1626 71.2299 36.1626 72.0627Z" fill="#324F5D"/>
<path d="M48.173 71.4929C47.8223 72.0627 49.1373 73.1586 50.277 73.1586C50.8468 73.1586 51.066 72.8079 51.066 72.0627C51.066 71.1422 50.8468 70.9669 49.7948 70.9669C49.0496 70.9669 48.3483 71.1861 48.173 71.4929Z" fill="#324F5D"/>
<path d="M39.231 79.6459C39.231 80.8294 39.3625 83.5909 39.5378 85.8264L39.8008 89.8591L43.2198 89.7715C46.595 89.64 46.595 89.64 46.858 88.3688C46.9895 87.6674 47.121 84.9498 47.121 82.3197V77.5419H43.176H39.231V79.6459Z" fill="#324F5D"/>
<path d="M210.183 80.6979C210.183 82.4512 210.314 85.2128 210.489 86.8346L210.752 89.8153H214.128H217.503L217.766 86.8346C217.941 85.2128 218.073 82.4512 218.073 80.6979V77.5419H214.128H210.183V80.6979Z" fill="#324F5D"/>
<path d="M24.766 96.741C24.766 96.9164 23.2319 98.3629 21.3908 99.8971C17.9718 102.746 17.2705 103.36 8.0654 111.557C5.30388 114.012 2.36702 116.598 1.53418 117.343L0 118.702L1.66568 120.411C2.93686 121.726 3.59436 122.077 4.4272 121.902L5.47921 121.726V128.915C5.47921 132.904 5.61071 137.068 5.74222 138.164L6.00522 140.136L8.76674 140.312L11.5283 140.443L11.7913 138.909C11.9228 138.076 12.0543 132.509 12.0543 126.548V115.765L13.8953 114.275C16.7006 112.083 23.6264 105.595 24.1085 104.675C24.503 103.974 25.3359 104.631 31.2973 110.11L38.0038 116.379L37.96 126.767C37.9162 132.466 38.0038 137.857 38.1792 138.69L38.4422 140.224H41.4667H44.4912V132.203C44.4912 122.822 44.7104 120.937 45.8062 120.937C46.5076 120.937 48.8746 118.351 48.8746 117.606C48.8746 117.431 47.1212 115.633 44.9295 113.573L40.9845 109.891V104.28C40.9845 100.861 40.8092 98.5382 40.5462 98.3629C40.2832 98.1875 38.7928 98.2314 37.2586 98.3629L34.4095 98.6697V101.081V103.448L33.0068 102.659C32.2616 102.22 30.2891 100.642 28.6672 99.1081C25.9934 96.6095 24.766 95.8644 24.766 96.741Z" fill="#324F5D"/>
<path d="M222.85 103.973C218.642 107.875 213.558 112.433 211.585 114.055C209.613 115.721 207.991 117.211 207.991 117.343C208.035 117.869 210.928 120.806 211.717 121.112C212.418 121.375 212.462 121.77 212.243 124.488C212.111 126.197 212.111 130.581 212.243 134.219L212.506 140.881H215.223H217.941L218.248 136.717C218.379 134.438 218.511 128.915 218.511 124.444V116.335L224.735 110.329L230.96 104.368L234.291 107.217C236.088 108.795 239.156 111.601 241.085 113.442L244.592 116.817L244.329 120.718C243.934 126.066 243.891 134.701 244.197 137.901L244.504 140.531L246.038 140.18C246.915 140.005 248.142 139.961 248.8 140.092C250.422 140.399 250.466 140.136 250.597 130.055C250.685 125.584 250.86 121.726 251.035 121.551C251.211 121.375 251.693 121.507 252.044 121.814C252.789 122.427 252.789 122.471 254.63 119.885L255.901 118.219L250.509 113.003L245.118 107.787L245.425 102.746L245.732 97.7053H243.408C242.137 97.7053 240.647 97.5738 240.121 97.4423C239.156 97.1793 239.113 97.2669 239.113 99.8531C239.113 101.694 238.937 102.527 238.587 102.527C238.28 102.527 236.483 101.256 234.642 99.6778C232.801 98.0998 231.135 96.8286 230.916 96.8286C230.74 96.8286 227.102 100.028 222.85 103.973Z" fill="#324F5D"/>
<path d="M23.2319 111.381C22.5744 111.995 22.0046 113.047 21.8292 114.011C21.6539 115.326 21.7854 115.809 22.7059 116.729C23.3196 117.343 24.3716 117.956 25.0291 118.132C25.9935 118.395 26.4318 118.219 27.2208 117.255C27.7906 116.641 28.3605 115.37 28.5358 114.494C28.7988 113.047 28.6673 112.74 27.44 111.644C25.7743 110.154 24.7223 110.11 23.2319 111.381Z" fill="#324F5D"/>
<path d="M229.689 111.382C228.198 112.258 227.672 113.179 227.891 114.757C228.198 116.861 229.294 117.869 231.223 117.869C233.327 117.869 234.729 116.422 234.729 114.231C234.729 112.872 234.51 112.434 233.327 111.732C231.705 110.724 230.916 110.68 229.689 111.382Z" fill="#324F5D"/>
<path d="M15.6924 118.132C15.3417 118.307 15.1226 119.272 15.1226 120.762V123.129H17.7526H20.3388L20.6018 121.639C20.7771 120.85 20.8209 119.71 20.7333 119.14C20.6018 118.22 20.3388 118.088 18.4101 118C17.2266 117.957 15.9554 118 15.6924 118.132Z" fill="#324F5D"/>
<path d="M30.3332 118.176C30.1579 118.307 30.0264 119.491 30.0264 120.806V123.129H32.3934C34.6727 123.129 34.7604 123.085 35.0234 121.77C35.1549 121.025 35.2864 119.841 35.2864 119.14C35.2864 117.913 35.2426 117.869 32.9632 117.869C31.6482 117.869 30.4647 118 30.3332 118.176Z" fill="#324F5D"/>
<path d="M221.229 120.806C221.36 123.26 221.404 123.348 222.631 123.48C223.333 123.567 224.56 123.523 225.393 123.348C226.883 123.085 226.883 123.085 226.752 120.806L226.62 118.526L223.859 118.395L221.097 118.263L221.229 120.806Z" fill="#324F5D"/>
<path d="M236.483 120.674V123.129H238.455C239.551 123.129 240.559 123.129 240.779 123.129C240.954 123.129 241.085 122.077 241.085 120.806V118.526L238.806 118.395L236.483 118.263V120.674Z" fill="#324F5D"/>
<path d="M20.3828 133.474V140.443L24.4155 140.312C26.651 140.224 28.755 140.093 29.0619 140.005C29.4564 139.873 29.5879 138.164 29.5879 133.43V127.074H27.6592C26.651 127.074 24.547 126.942 23.0567 126.811L20.3828 126.504V133.474Z" fill="#324F5D"/>
<path d="M226.401 131.414C226.401 133.781 226.533 136.893 226.664 138.295L226.927 140.925L230.522 140.575C232.45 140.356 234.423 140.268 234.861 140.399C235.519 140.575 235.606 140.224 235.606 137.857C235.606 136.323 235.738 133.298 235.869 131.107L236.176 127.074H231.267H226.401V131.414Z" fill="#324F5D"/>
<path d="M244.417 146.799C244.154 148.026 243.935 149.385 243.935 149.824C243.935 151.533 241.261 161.089 239.288 166.437C237.403 171.609 235.519 175.554 230.785 184.277C224.823 195.323 213.163 207.421 196.287 220.045C185.899 227.848 178.447 231.573 165.998 235.124C162.316 236.176 159.16 237.14 158.985 237.272C158.678 237.447 159.204 244.504 159.511 244.855C159.73 245.118 168.278 242.707 173.187 241.042C182.085 237.973 193.57 231.836 200.758 226.357C212.462 217.415 216.802 213.514 223.947 205.58C232.363 196.287 235.782 191.29 241.348 180.113C247.704 167.489 251.123 157.188 252.044 147.983L252.351 145.046H249.282C247.573 145.046 245.907 144.914 245.557 144.783C245.074 144.607 244.768 145.09 244.417 146.799Z" fill="#324F5D"/>
<path d="M5.91748 146.711C5.91748 148.728 7.7585 156.618 9.42418 161.922C17.0512 185.767 29.1493 203.564 48.1293 218.73C64.4793 231.836 77.4979 238.85 93.7164 243.277C96.3026 243.978 98.4504 244.548 98.5381 244.548C98.5819 244.548 98.6258 242.839 98.6258 240.779C98.6258 236.395 99.2833 237.009 92.0507 234.817C86.44 233.108 84.7743 232.406 76.0952 228.023C71.4489 225.7 67.5038 223.289 64.7861 221.229C62.463 219.475 58.9124 216.801 56.8084 215.267C54.7482 213.777 50.4964 210.358 47.428 207.64C39.5379 200.715 35.2861 195.849 28.7987 186.249C21.6538 175.598 16.4376 161.659 14.0267 146.755L13.8075 145.177L9.86251 145.221L5.91748 145.265V146.711Z" fill="#324F5D"/>
<path d="M41.5982 150.043C39.6695 151.972 29.7631 160.475 27.1769 162.404C25.9934 163.281 24.8975 164.07 24.8099 164.201C24.4592 164.464 27.0892 166.963 27.7029 166.963C28.1412 166.963 28.2727 168.716 28.2727 175.466V183.926L30.5959 184.189C31.8233 184.321 33.0506 184.277 33.2259 184.102C33.4013 183.926 33.6204 179.411 33.7081 174.064C33.8834 162.886 33.2698 164.552 39.3188 158.985C43.7899 154.908 42.8255 154.733 49.1814 160.651L53.2579 164.376V174.677V184.934H55.888H58.518V176.694V168.409L60.0522 166.831C60.885 165.954 61.5863 164.99 61.5863 164.639C61.5863 164.289 60.3152 162.886 58.7372 161.483L55.888 158.985V154.645V150.306H53.4771H51.0663V152.804V155.303L49.2252 153.55C46.6829 151.139 43.5269 148.552 43.22 148.596C43.0885 148.64 42.3434 149.298 41.5982 150.043Z" fill="#324F5D"/>
<path d="M212.769 150.613C211.717 151.489 208.868 153.944 206.457 156.004C204.046 158.064 200.627 160.914 198.874 162.36L195.674 164.902L197.252 166.524L198.83 168.146L198.786 176.65L198.698 185.154H201.285H203.827L203.958 175.028L204.046 164.859L209.35 160.168L214.61 155.478L217.547 157.933C219.169 159.248 221.273 161.133 222.237 162.141L223.99 163.938V173.976C223.99 179.455 224.078 184.058 224.21 184.189C224.341 184.321 225.612 184.452 227.015 184.54L229.601 184.715L229.513 175.773C229.426 167.664 229.47 166.875 230.127 167.138C230.609 167.313 231.223 166.919 232.012 165.998C232.669 165.253 233.195 164.464 233.195 164.289C233.195 164.113 231.924 162.93 230.346 161.659L227.497 159.379L227.672 154.864L227.804 150.306H225.349H222.895V152.497C222.895 153.681 222.763 154.689 222.632 154.689C222.5 154.689 220.878 153.418 219.037 151.84C217.196 150.262 215.443 148.991 215.18 148.991C214.917 148.991 213.865 149.736 212.769 150.613Z" fill="#324F5D"/>
<path d="M213.207 161.44C211.761 162.141 211.235 164.07 212.155 165.472C212.55 166.086 213.339 166.787 213.952 167.05C215.574 167.795 217.371 166.349 217.547 164.113C217.634 163.193 217.503 162.272 217.328 162.097C216.495 161.264 214.259 160.914 213.207 161.44Z" fill="#324F5D"/>
<path d="M40.9845 162.448C39.3188 164.552 40.4585 167.401 42.9132 167.401C45.061 167.401 46.2445 166.349 46.2445 164.376C46.2445 161.264 42.8693 160.037 40.9845 162.448Z" fill="#324F5D"/>
<path d="M48.1734 167.182C47.209 168.672 47.6473 169.593 49.4445 169.593C51.1102 169.593 51.943 168.935 51.943 167.576C51.943 165.823 49.2692 165.516 48.1734 167.182Z" fill="#324F5D"/>
<path d="M206.413 167.138C205.843 169.549 206.939 170.513 209.569 169.856C210.358 169.636 210.621 169.286 210.621 168.365C210.621 166.743 209.876 166.086 208.123 166.086C206.983 166.086 206.632 166.305 206.413 167.138Z" fill="#324F5D"/>
<path d="M219.3 167.182C218.686 168.584 219.519 169.68 221.097 169.505C222.061 169.373 222.237 169.11 222.368 167.708C222.5 166.174 222.456 166.086 221.141 166.086C220.133 166.086 219.694 166.349 219.3 167.182Z" fill="#324F5D"/>
<path d="M36.6011 167.445C35.5929 169.33 37.2147 170.338 39.0558 168.935C39.8886 168.322 39.8448 168.278 38.7927 167.401C37.3901 166.305 37.1709 166.305 36.6011 167.445Z" fill="#324F5D"/>
<path d="M39.9764 173.362C39.5819 173.757 39.5819 178.052 39.9326 181.866L40.1956 184.715L43.5708 184.628L46.9021 184.54L47.0336 179.061L47.1651 173.538H44.3159C42.7818 173.538 41.2037 173.45 40.8969 173.318C40.5462 173.187 40.1517 173.231 39.9764 173.362Z" fill="#324F5D"/>
<path d="M210.621 177.658C210.621 180.157 210.752 182.83 210.884 183.576L211.19 184.934L214.609 184.847L218.072 184.715V178.885V173.099H214.346H210.621V177.658Z" fill="#324F5D"/>
<path d="M71.2294 186.951C68.2048 189.537 64.2598 192.781 62.4626 194.227C60.6654 195.674 59.1313 197.12 59.0436 197.427C58.9559 197.734 59.5258 198.698 60.2271 199.531L61.586 201.065V209.131V217.24L64.0845 217.766C65.4433 218.029 66.6707 218.117 66.8022 217.985C66.9337 217.854 67.0652 213.251 67.109 207.772C67.109 199.882 67.2843 197.602 67.7665 196.945C68.1172 196.463 69.8705 194.841 71.6677 193.307C73.4649 191.816 75.3059 190.151 75.7004 189.669C76.4456 188.836 76.5332 188.88 80.0838 191.86C82.1001 193.526 84.511 195.718 85.4315 196.682L87.141 198.479L87.404 208.912L87.667 219.344L90.1655 219.475L92.6202 219.607L92.7956 210.139L92.9271 200.715L94.3736 199.356C95.1187 198.654 95.7762 197.953 95.7762 197.909C95.7762 197.822 94.4174 196.638 92.7079 195.235L89.6834 192.737L89.5519 188.354L89.4204 183.97L86.878 183.882L84.3356 183.839L84.4233 185.68C84.511 186.688 84.4233 187.652 84.2918 187.784C83.985 188.091 79.3824 184.715 78.0674 183.225C77.5853 182.743 77.1031 182.304 76.9716 182.304C76.8401 182.348 74.2539 184.408 71.2294 186.951Z" fill="#324F5D"/>
<path d="M180.595 183.137C180.113 183.619 177.658 185.68 175.116 187.74C172.574 189.844 168.672 193 166.437 194.841L162.36 198.172L163.588 199.487L164.815 200.758L165.034 210.051L165.253 219.3L167.445 219.169C168.629 219.125 169.768 218.949 169.944 218.862C170.163 218.73 170.294 214.128 170.294 208.605V198.567L173.45 195.805C175.16 194.271 177.614 192.079 178.886 190.94L181.165 188.836L182.612 190.063C183.444 190.72 185.724 192.737 187.74 194.534C190.589 197.076 191.247 197.865 190.852 198.348C190.502 198.786 190.458 201.635 190.677 208.605C191.028 219.3 190.765 218.511 194.096 217.985L195.718 217.678V214.785C195.718 209.306 196.288 200.758 196.638 200.978C196.814 201.065 197.471 200.452 198.085 199.575L199.181 197.953L198.26 196.638C197.778 195.937 196.375 194.666 195.192 193.789L193 192.255L193.175 187.696L193.307 183.181H190.808H188.31L188.178 185.46L188.047 187.74L185.154 185.022C183.532 183.532 182.042 182.304 181.823 182.304C181.603 182.304 181.077 182.699 180.595 183.137Z" fill="#324F5D"/>
<path d="M74.9995 195.06C73.5968 196.156 73.553 197.646 74.868 198.874C76.183 200.101 77.4104 200.101 78.5939 198.83C79.7774 197.559 79.8212 196.156 78.6816 195.016C77.5419 193.877 76.446 193.92 74.9995 195.06Z" fill="#324F5D"/>
<path d="M178.841 195.235C178.228 195.805 177.746 196.594 177.746 196.989C177.746 197.997 180.113 200.276 181.208 200.276C182.173 200.276 183.882 198.347 183.882 197.208C183.882 195.937 182.173 194.139 180.989 194.139C180.376 194.139 179.411 194.622 178.841 195.235Z" fill="#324F5D"/>
<path d="M126.022 195.498C121.902 197.12 119.71 202.599 121.419 206.764C122.866 210.139 125.189 211.673 128.871 211.673C131.94 211.673 133.781 210.928 135.534 208.911C137.857 206.238 138.383 203.038 137.024 200.057C135.227 196.068 130.011 193.92 126.022 195.498Z" fill="#324F5D"/>
<path d="M69.476 200.452C68.6432 201.504 69.1253 203.082 70.528 203.739C72.106 204.484 73.158 203.958 73.3334 202.336C73.5525 200.452 70.7034 199.049 69.476 200.452Z" fill="#324F5D"/>
<path d="M185.285 200.364C184.978 200.671 184.759 201.372 184.759 201.942C184.759 202.862 184.935 202.95 186.644 202.819C188.354 202.687 188.485 202.599 188.617 201.241C188.748 199.926 188.704 199.838 187.302 199.838C186.469 199.838 185.592 200.057 185.285 200.364Z" fill="#324F5D"/>
<path d="M81.1799 200.583C81.0045 200.715 80.873 201.416 80.873 202.117C80.873 203.213 81.0045 203.345 82.3196 203.345C83.8976 203.345 85.2564 202.249 85.2564 201.021C85.2564 200.452 84.8181 200.276 83.3716 200.276C82.3196 200.276 81.3114 200.408 81.1799 200.583Z" fill="#324F5D"/>
<path d="M173.45 200.671C173.099 200.89 172.924 201.679 173.012 202.731C173.143 204.353 173.231 204.44 174.809 204.572C176.781 204.747 177.746 204.09 177.746 202.643C177.746 200.934 175.028 199.663 173.45 200.671Z" fill="#324F5D"/>
<path d="M105.946 206.413C104.237 207.465 102.79 209.7 102.79 211.366C102.79 214.347 105.376 217.503 108.225 218.073C110.286 218.423 113.485 216.977 114.625 215.092C115.721 213.295 115.765 210.314 114.757 208.605C113.135 205.799 108.751 204.703 105.946 206.413Z" fill="#324F5D"/>
<path d="M145.615 206.325C141.1 209.35 141.144 214.61 145.747 217.722C146.93 218.511 147.675 218.73 148.903 218.555C151.095 218.248 153.505 216.714 154.382 215.048C155.39 213.12 155.259 209.701 154.207 208.21C152.366 205.712 148.026 204.747 145.615 206.325Z" fill="#324F5D"/>
<path d="M180.332 207.596C177.395 207.772 177.395 207.772 177.176 209.174C177.045 209.963 177.088 212.593 177.22 215.048L177.439 219.519L180.77 219.256C182.611 219.125 184.146 218.993 184.189 218.949C184.233 218.905 184.365 216.275 184.452 213.076C184.584 207.991 184.54 207.29 183.926 207.377C183.532 207.421 181.91 207.509 180.332 207.596Z" fill="#324F5D"/>
<path d="M73.1584 210.402C73.2899 211.892 73.4214 214.522 73.4214 216.232V219.344H77.1473H80.8731V214.215C80.8731 211.41 81.0046 208.824 81.1361 208.429C81.3553 207.816 80.8293 207.728 77.1473 207.728H72.8516L73.1584 210.402Z" fill="#324F5D"/>
<path d="M126.592 217.24C126.066 217.328 124.838 218.336 123.83 219.432L121.989 221.404L122.252 225.218C122.384 227.278 122.647 234.16 122.778 240.472L123.085 252H129.046H135.008V241.392C135.008 235.519 135.096 228.549 135.227 225.831C135.446 221.097 135.402 220.922 134.35 219.738C132.378 217.591 129.529 216.67 126.592 217.24Z" fill="#324F5D"/>
<path d="M106.253 222.368C104.149 223.596 104.017 224.429 104.368 237.184L104.675 248.932L108.97 248.975C111.381 249.019 113.661 249.063 114.099 249.107C114.8 249.151 114.844 248.318 114.976 238.192C115.107 226.445 114.888 224.779 113.091 223.07C111.732 221.799 107.962 221.404 106.253 222.368Z" fill="#324F5D"/>
<path d="M144.871 222.5C142.022 223.946 141.671 225.305 142.109 233.59C142.285 237.579 142.46 242.839 142.46 245.337V249.808L144.432 249.545C145.528 249.414 147.983 249.282 149.912 249.238L153.418 249.151L153.374 237.272C153.331 229.338 153.111 225.086 152.805 224.429C151.665 222.324 147.325 221.272 144.871 222.5Z" fill="#324F5D"/>
</svg>
