<svg width="143" height="141" viewBox="0 0 143 141" fill="none" xmlns="http://www.w3.org/2000/svg">
<path d="M71.2547 1.00424C70.2994 2.00853 61.5303 9.74885 59.7912 11.1206L58.8604 11.8799L59.6932 12.7862C60.1586 13.2761 60.6975 13.6925 60.9179 13.6925C61.4323 13.6925 61.6038 15.6031 61.6038 21.1634V25.5969L63.1469 25.4989C63.9797 25.45 64.7146 25.352 64.7636 25.303C64.8126 25.254 64.8616 22.0942 64.8371 18.2975L64.8126 11.3655L68.4868 8.10771L72.161 4.84991L75.8352 8.23018L79.5339 11.6349L79.4849 18.5424L79.4604 25.45H81.0281H82.5957L82.7672 23.9558C82.8407 23.123 82.9141 20.502 82.9141 18.1505V13.8885L84.0164 12.9087C84.6288 12.3698 85.1187 11.7819 85.1187 11.6104C85.1187 11.439 84.8247 11.0961 84.4573 10.8511C83.698 10.3612 77.5498 4.97239 74.3165 1.95954L72.21 -4.00543e-05L71.2547 1.00424Z" fill="white"/>
<path d="M59.7671 3.42935C55.897 4.1152 50.6796 5.46241 48.1811 6.4422C47.0054 6.8831 45.8541 7.3485 45.6092 7.42199C45.3643 7.49547 45.1928 7.71592 45.2418 7.88739C45.3887 8.35279 47.4218 9.28359 48.3036 9.28359C48.769 9.28359 49.5039 9.43055 49.9693 9.62651C50.7776 9.96944 51.0715 9.92045 54.9172 8.94066C57.1952 8.35279 59.3752 7.71592 59.7671 7.49547C60.453 7.15255 64.0537 3.40486 64.0537 3.06193C64.0537 2.81698 62.584 2.93946 59.7671 3.42935Z" fill="white"/>
<path d="M80.5633 3.84568C81.2736 5.24187 83.6251 7.54438 84.5804 7.78932C85.0948 7.93629 87.1524 8.45068 89.1609 8.94057C91.194 9.43047 93.3495 10.1163 93.9864 10.4348L95.1132 11.0471L97.0727 9.50395C98.1505 8.64664 99.0568 7.86281 99.0568 7.74033C99.0813 7.51988 98.5424 7.29943 94.9662 6.07469C91.5124 4.89895 85.1928 3.50275 82.3514 3.2578L80.1714 3.08634L80.5633 3.84568Z" fill="white"/>
<path d="M71.2059 8.96513C71.0344 9.03861 70.7405 9.40603 70.5201 9.79795C69.8342 11.1697 70.716 12.9578 72.0877 12.9578C72.7246 12.9578 73.8268 12.0515 74.1208 11.3166C74.6597 9.89593 72.7491 8.32827 71.2059 8.96513Z" fill="white"/>
<path d="M41.6412 10.7042C40.8328 11.4636 38.6773 13.3741 36.8647 14.9418C35.0521 16.5095 33.3375 18.0281 33.068 18.3221L32.5781 18.8854L33.3865 19.5223L34.1948 20.1837L34.2928 22.8781C34.3417 24.3723 34.3907 26.6993 34.3907 28.071L34.4152 30.5939H35.8849H37.3301L37.5016 29.7121C37.5995 29.2222 37.5995 26.5523 37.5261 23.7599L37.4036 18.714L40.196 16.0196L42.9884 13.3251L45.9767 15.9706L48.9651 18.616L48.9896 24.5437V30.4714L50.5327 30.5449L52.0514 30.6184V25.695V20.7715L53.1047 19.7917L54.1335 18.812L53.4966 18.2731C53.1537 17.9791 52.4923 17.4403 52.0269 17.0973L51.1941 16.436V14.109V11.782L49.8959 11.6105C49.161 11.5125 48.5242 11.5125 48.4507 11.586C48.3527 11.6595 48.3037 12.2229 48.3282 12.8353V13.9375L47.2015 12.9822C46.5646 12.4433 45.4378 11.3901 44.703 10.6552C43.9682 9.89589 43.3068 9.28352 43.2333 9.28352C43.1598 9.30802 42.4495 9.92039 41.6412 10.7042Z" fill="white"/>
<path d="M99.6935 10.6062C99.0321 11.1451 97.3175 12.6148 95.8968 13.815C94.4761 15.0398 92.59 16.6319 91.6837 17.3668C90.7774 18.1016 90.0181 18.8365 90.0181 18.9834C90.0181 19.3019 90.7039 19.9387 91.3163 20.1347C91.6837 20.2816 91.7327 20.747 91.7327 25.45V30.5939H93.1779C94.4516 30.5939 94.6231 30.5449 94.77 30.0305C94.8435 29.7366 94.917 26.9932 94.917 23.9558V18.4445L97.3175 16.4605C98.6157 15.3827 99.8894 14.2559 100.134 13.9865C100.6 13.4721 100.624 13.4966 103.662 16.2155L106.723 18.9589L106.552 21.5064C106.479 22.9026 106.479 25.5235 106.576 27.3361L106.748 30.6184L108.12 30.5449L109.491 30.4714L109.565 25.4745L109.614 20.5021L110.349 19.8162C110.765 19.4243 111.084 19.0079 111.084 18.8365C111.084 18.6895 110.373 17.8812 109.516 17.0483L107.948 15.5297L108.144 14.1825C108.242 13.4476 108.389 12.3209 108.463 11.684L108.561 10.5328L107.189 10.3858C106.43 10.2878 105.67 10.2143 105.474 10.1898C105.205 10.1408 105.131 10.4838 105.18 11.7085L105.254 13.2762L104.298 12.5168C103.784 12.1249 102.976 11.3656 102.51 10.8757C101.163 9.47948 101.065 9.45499 99.6935 10.6062Z" fill="white"/>
<path d="M66.5029 13.9375V15.4072H67.9726H69.4668L69.3933 13.9865L69.3198 12.5903L67.9236 12.5169L66.5029 12.4434V13.9375Z" fill="white"/>
<path d="M75.4192 12.8108C75.3457 13.0067 75.3212 13.5701 75.3702 14.0845C75.4437 15.0398 75.4437 15.0398 76.6194 15.1133L77.7707 15.1868V13.8396V12.4679H76.6684C75.9336 12.4679 75.5172 12.5903 75.4192 12.8108Z" fill="white"/>
<path d="M111.083 14.6234C111.083 14.8929 111.598 15.8482 112.21 16.779C113.386 18.5426 113.435 18.812 112.896 21.09C112.774 21.6534 112.872 21.8004 113.68 22.2168C114.88 22.8292 117.158 24.8867 117.942 26.038C118.505 26.8218 118.628 26.8953 119.534 26.7483C120.416 26.6258 120.636 26.7238 121.739 27.6301C122.4 28.1935 123.061 28.6344 123.208 28.6589C123.331 28.6589 124.09 28.6589 124.874 28.6344C126.172 28.6099 126.344 28.6589 127.054 29.4182L127.838 30.2266L127.397 29.4917C125.829 26.9688 120.734 21.6289 117.207 18.812C112.676 15.2113 111.083 14.109 111.083 14.6234Z" fill="white"/>
<path d="M29.8832 16.7788C25.9395 19.8162 22.5103 22.9515 19.277 26.3807C16.1417 29.6875 14.8679 31.3777 13.4717 34.0476L12.5654 35.7622L13.6432 35.1009C14.2066 34.7579 15.6273 33.5577 16.7785 32.4554C17.9298 31.3532 19.3505 30.0794 19.9628 29.614C20.5752 29.1486 21.555 28.3403 22.1429 27.8259C23.0737 26.9931 23.2941 26.8706 24.0779 26.9931C24.8863 27.1401 25.0332 27.0421 26.6744 25.3765C27.6297 24.3967 28.9769 23.1719 29.6382 22.633C30.3241 22.1187 30.9365 21.6043 31.0589 21.5308C31.1569 21.4328 31.0834 20.9674 30.863 20.4775C30.1281 18.7384 30.3731 17.8811 32.1612 15.6766C32.6266 15.1132 32.896 14.6723 32.7736 14.6723C32.6756 14.6723 31.3774 15.6276 29.8832 16.7788Z" fill="white"/>
<path d="M100.135 16.8768C99.0322 17.3177 98.7873 18.6404 99.5956 19.6692C100.575 20.8939 102.51 20.0856 102.51 18.4199C102.51 17.7831 101.506 16.6318 100.992 16.6563C100.82 16.6563 100.428 16.7543 100.135 16.8768Z" fill="white"/>
<path d="M41.9351 17.3177C41.3718 17.9301 41.4208 18.9588 42.0331 19.5467C42.8904 20.3305 43.4783 20.355 44.2376 19.5712C45.0705 18.7384 45.1195 18.371 44.4336 17.5136C43.8212 16.7298 42.5475 16.6318 41.9351 17.3177Z" fill="white"/>
<path d="M69.5649 20.4776C69.5894 22.0698 69.6139 23.8579 69.6384 24.4702L69.6874 25.5725H72.2594H74.8313L74.7823 21.6534L74.7088 17.7342L72.1369 17.6607L69.5649 17.5872V20.4776Z" fill="white"/>
<path d="M38.7753 20.1837C38.4324 20.943 38.6528 21.1879 39.8776 21.4084C40.7594 21.5799 40.7839 21.5554 40.7839 20.8695C40.7839 20.0122 40.392 19.5713 39.6326 19.5713C39.2652 19.5713 38.9713 19.7917 38.7753 20.1837Z" fill="white"/>
<path d="M46.2461 19.7428C45.6338 19.8653 45.2174 20.9186 45.6093 21.3105C45.7562 21.4575 46.3441 21.5309 46.932 21.482C47.9853 21.4085 48.0097 21.384 48.0097 20.5512C48.0097 19.8163 47.9363 19.6938 47.3974 19.6693C47.0545 19.6449 46.5401 19.6693 46.2461 19.7428Z" fill="white"/>
<path d="M96.3132 19.7428C96.0193 20.0123 96.1172 20.9676 96.4602 21.237C96.8766 21.5799 98.3463 21.3105 98.3463 20.8696C98.3463 20.1348 97.8319 19.5714 97.146 19.5714C96.7786 19.5714 96.3867 19.6449 96.3132 19.7428Z" fill="white"/>
<path d="M103.49 19.9143C103.343 20.1102 103.245 20.5266 103.294 20.8451C103.343 21.3105 103.539 21.4085 104.421 21.4819L105.45 21.5554V20.5756C105.45 19.5958 105.425 19.5713 104.617 19.5713C104.176 19.5713 103.661 19.7428 103.49 19.9143Z" fill="white"/>
<path d="M41.0288 25.9645C41.0288 27.2627 41.1023 28.8303 41.1758 29.4672L41.3472 30.594H43.2333C45.5113 30.594 45.4379 30.7654 45.4379 26.6258V23.7599L43.2333 23.6865L41.0288 23.613V25.9645Z" fill="white"/>
<path d="M98.591 26.6749C98.591 30.9615 98.4685 30.741 100.795 30.643L102.755 30.545V28.316C102.755 27.0668 102.829 25.4991 102.902 24.8378L103.049 23.613H100.82H98.591V26.6749Z" fill="white"/>
<path d="M117.134 31.3776C115.835 32.5044 113.435 34.5619 111.818 35.9581L108.854 38.4811L109.393 39.0689C109.687 39.3874 110.128 39.7058 110.373 39.7793C110.79 39.9263 110.839 40.3427 110.888 45.1191L110.961 50.2875L112.308 50.214C113.043 50.1895 113.704 50.0916 113.778 50.0181C113.851 49.9691 113.925 47.2502 113.949 43.9924L114.023 38.0647L115.909 36.399C116.962 35.4927 118.187 34.366 118.628 33.9006L119.436 33.0432L122.18 35.5172C123.674 36.8644 124.997 38.1871 125.094 38.4076C125.168 38.6525 125.241 41.347 125.217 44.3843C125.217 47.4461 125.241 49.9936 125.315 50.0426C125.364 50.0916 126.025 50.1895 126.76 50.214L128.107 50.312L128.279 45.1191L128.45 39.9263L129.234 39.2159L130.042 38.4811L128.279 36.8154L126.491 35.1253L126.785 32.9698C127.128 30.4468 127.054 30.3243 125.315 30.1529C123.968 30.0304 123.919 30.0794 123.772 31.99L123.698 32.7983L121.641 31.0837C120.514 30.1284 119.559 29.369 119.534 29.369C119.534 29.369 118.432 30.2753 117.134 31.3776Z" fill="white"/>
<path d="M23.4905 30.1285C23.2456 30.4224 22.2168 31.2552 21.237 31.9901C20.2572 32.7249 18.5426 34.1946 17.4158 35.2234C16.3136 36.2766 15.1133 37.3299 14.7459 37.5748C13.9376 38.0892 13.9131 38.3097 14.6969 39.314C15.2848 40.0733 15.3093 40.2693 15.3338 43.625C15.3583 45.5601 15.4317 47.8381 15.5297 48.7199L15.6767 50.2876L17.0239 50.2141C17.7587 50.1896 18.4201 50.0916 18.4691 50.0427C18.5426 49.9937 18.6161 47.3237 18.6406 44.1149L18.6895 38.3097L21.335 35.8112L23.9804 33.2883L24.7152 33.9741C25.1316 34.366 26.4054 35.5173 27.5566 36.5706L29.6387 38.4812V44.1884C29.6387 47.3237 29.6877 49.9692 29.7611 50.0182C29.8346 50.0916 30.496 50.1896 31.2308 50.2141L32.578 50.2876L32.6515 45.4376L32.7005 40.5877L33.5578 39.7794C34.0232 39.3385 34.4151 38.8731 34.4151 38.7261C34.4151 38.5791 33.6803 37.7953 32.774 36.987L31.1329 35.5173V32.9943L31.1084 30.4714L29.5897 30.3979L28.0465 30.3244V31.5736V32.8474L26.2829 31.2307C25.3031 30.3489 24.3968 29.6141 24.2253 29.6141C24.0784 29.6141 23.7599 29.859 23.4905 30.1285Z" fill="white"/>
<path d="M66.993 30.3735C65.0824 30.594 62.5839 31.2063 59.914 32.0636C54.5742 33.7783 50.2141 36.4727 45.5601 40.9062C40.9551 45.3643 37.9423 50.1162 36.0562 55.946C34.7825 59.9141 34.415 62.2166 34.415 66.2582C34.415 76.595 37.4034 84.1394 44.1884 90.8509C50.949 97.538 57.9789 101.188 66.748 102.584C69.0505 102.951 75.5416 102.902 78.2606 102.51C83.9188 101.653 91.0223 98.6892 95.4558 95.3824C101.114 91.1204 105.989 84.6538 108.242 78.3831C109.565 74.7089 110.275 68.4628 109.859 64.1517C109.295 57.9545 107.899 53.521 105.009 48.5486C100.796 41.3471 92.8349 34.6601 85.4865 32.1861C80.71 30.5695 79.2403 30.3245 73.8515 30.2265C71.0836 30.1775 67.9973 30.251 66.993 30.3735ZM78.3095 34.9785C85.2171 36.1787 90.7529 39.0936 95.9212 44.2865C100.771 49.1609 103.907 55.2356 105.009 61.8002C105.499 64.7396 105.376 70.9857 104.788 73.7046C103.882 77.7218 102.559 80.8816 100.306 84.3353C99.1545 86.1234 96.2642 89.3812 95.8722 89.3812C95.6273 89.3812 95.5783 69.0261 95.7988 68.1443C95.9457 67.6299 95.9947 67.6054 96.803 67.9484C97.6359 68.2913 97.6604 68.2913 98.9096 67.336C99.6199 66.8216 100.428 66.2827 100.747 66.1848C101.212 65.9888 100.992 65.7439 98.3707 63.5883C96.7785 62.2656 94.4026 60.0856 93.0798 58.7384L90.6794 56.3134L90.8018 51.047L90.9243 45.7807L88.4504 45.8052C87.0786 45.8052 85.4375 45.9031 84.7517 45.9766C83.6739 46.1236 83.5269 46.2216 83.4534 46.7605C83.3065 48.0342 83.135 48.4751 82.7676 48.4751C82.3022 48.4751 76.8889 43.8456 74.3414 41.2736C73.3371 40.2449 72.4308 39.412 72.3083 39.412C72.1859 39.412 71.549 40.0244 70.8632 40.7837C70.1773 41.5186 67.9483 43.6251 65.9152 45.4377C63.8822 47.2504 60.9428 49.8958 59.3751 51.3655C49.1119 60.8939 47.0788 62.7555 45.3152 64.2742C44.2374 65.205 43.3311 66.0133 43.3066 66.0868C43.2821 66.1603 43.9925 66.6991 44.8743 67.287C46.4419 68.3158 46.7604 68.3893 47.9361 67.9484C48.2545 67.8259 48.279 69.81 48.1321 86.8093L48.1076 89.0138L46.6379 87.4217C44.3844 84.9722 43.0372 83.1106 42.0084 80.9551C38.6281 73.9741 37.9178 66.1603 39.9263 58.3709C40.5632 55.995 42.1064 52.2473 43.1841 50.4837C47.1523 44.0415 55.1621 37.8934 62.2165 35.8603C67.14 34.4641 73.2881 34.1212 78.3095 34.9785ZM72.5288 46.393C72.6023 46.589 74.2924 48.2056 76.252 49.9693C78.2361 51.7329 82.4002 55.701 85.4865 58.7874L91.1203 64.3721L91.0468 78.7995L90.9978 93.2269L89.1852 94.2557C88.2054 94.8191 86.4663 95.6519 85.315 96.1173C83.233 96.9746 78.0401 98.2973 77.7707 98.0524C77.6972 97.9789 77.6972 94.6476 77.7462 90.655L77.8197 83.38L74.9538 80.9796L72.0879 78.6036L71.2061 79.3139C70.7162 79.7058 69.4915 80.7346 68.4872 81.6409C67.5074 82.5227 66.6011 83.2576 66.4786 83.2576C66.3561 83.2576 66.2582 86.5888 66.2582 90.6305V98.0034L65.1069 97.8319C62.388 97.44 57.1461 95.4314 54.7211 93.8638L53.276 92.933L53.227 78.4811L53.1535 64.0292L55.603 61.6042C56.9502 60.2815 60.6489 56.8033 63.8087 53.8884C66.9685 50.9735 70.1038 48.0342 70.7897 47.3483C72.1614 45.9766 72.3328 45.8542 72.5288 46.393Z" fill="white"/>
<path d="M70.1774 54.6231C67.7279 55.6519 66.5277 58.9097 67.6545 61.4816C68.8057 64.1025 72.284 64.8864 74.9294 63.1228C77.6483 61.3346 77.7463 57.1216 75.1253 55.1375C74.415 54.5986 73.9741 54.4761 72.5289 54.4271C71.5736 54.3781 70.5203 54.4761 70.1774 54.6231Z" fill="white"/>
<path d="M61.4819 67.8749C60.2817 67.9974 58.9834 68.0464 58.6405 67.9974L57.9792 67.9239L57.8322 70.2019C57.6117 72.9943 57.8322 74.7824 58.3466 74.5864C58.5425 74.513 59.9632 74.4395 61.5064 74.4395H64.2988V71.0102C64.2988 68.4138 64.2253 67.581 64.0049 67.6054C63.8334 67.6299 62.7066 67.7524 61.4819 67.8749Z" fill="white"/>
<path d="M79.9751 71.0593V74.562L83.2819 74.4885L86.5887 74.415V70.9858V67.581H83.2819H79.9751V71.0593Z" fill="white"/>
<path d="M128.622 31.9657C128.94 34.0478 129.234 34.7336 130.557 36.2033C131.292 37.0362 131.904 37.8935 131.929 38.1384C132.002 39.1672 131.831 39.853 131.194 41.0043C130.826 41.6656 130.581 42.4495 130.63 42.7189C130.679 42.9884 131.341 44.5315 132.1 46.1482C132.835 47.7648 133.741 49.9694 134.109 51.0471L134.77 53.0067L136.632 53.0802C138.983 53.1782 139.008 53.2272 139.106 56.8279C139.179 59.2528 139.228 59.5713 139.742 60.1102C140.453 60.8695 140.967 60.894 140.967 60.1592C140.967 58.7874 140.159 54.9418 139.277 52.2719C137.171 45.7563 134.182 39.3876 130.949 34.5132C128.45 30.7655 128.45 30.79 128.622 31.9657Z" fill="white"/>
<path d="M118.334 37.33C117.526 38.5792 118.04 39.7304 119.583 40.0489C120.196 40.1713 120.416 40.0734 120.857 39.5345C121.126 39.1671 121.371 38.6037 121.371 38.2852C121.371 36.8646 119.118 36.1542 118.334 37.33Z" fill="white"/>
<path d="M22.927 37.477C22.633 37.7954 22.4126 38.2853 22.4126 38.5792C22.4126 39.1916 23.1964 40.0489 23.9313 40.2939C24.5436 40.4898 25.5479 39.804 25.8664 38.9956C26.4542 37.4525 24.0782 36.2522 22.927 37.477Z" fill="white"/>
<path d="M10.0673 39.706C7.61788 44.2865 5.41336 50.3612 4.18862 55.848C3.84569 57.4156 3.55176 58.8853 3.55176 59.1058C3.55176 59.9386 4.40907 59.3997 6.51562 57.2197C8.52418 55.1621 8.74464 54.8192 9.25902 53.1291C9.96937 50.9 11.3901 47.1279 12.2229 45.2173C13.0557 43.3802 13.0312 42.5229 12.1004 40.5388C11.5615 39.3875 11.3656 38.6527 11.4391 38.0648C11.488 37.5994 11.5125 37.2075 11.488 37.2075C11.4391 37.2075 10.8022 38.3343 10.0673 39.706Z" fill="white"/>
<path d="M115.101 39.7795C114.856 40.7593 115.125 41.1267 116.105 41.1267C117.109 41.1267 117.403 40.6613 117.011 39.755C116.619 38.8977 115.321 38.9222 115.101 39.7795Z" fill="white"/>
<path d="M122.351 39.8039C122.008 40.6612 122.302 40.9307 123.355 40.8327C124.09 40.7592 124.188 40.6857 124.188 40.0244C124.188 39.363 124.09 39.2895 123.38 39.2161C122.718 39.1426 122.547 39.2405 122.351 39.8039Z" fill="white"/>
<path d="M20.208 40.2694C20.208 40.9798 20.8204 41.3472 21.2613 40.9063C21.6042 40.5633 21.2123 39.8285 20.5999 39.706C20.3305 39.6325 20.208 39.804 20.208 40.2694Z" fill="white"/>
<path d="M26.9195 39.951C26.7235 40.2695 27.4584 40.8818 28.0952 40.8818C28.4136 40.8818 28.5361 40.6859 28.5361 40.2695C28.5361 39.7551 28.4136 39.6571 27.8258 39.6571C27.4094 39.6571 27.0174 39.7796 26.9195 39.951Z" fill="white"/>
<path d="M21.9229 44.5068C21.9229 45.1682 21.9963 46.7114 22.0943 47.9606L22.2413 50.2141L24.1519 50.1651C26.038 50.0916 26.038 50.0916 26.1849 49.3813C26.2584 48.9894 26.3319 47.4707 26.3319 46.001V43.3311H24.1274H21.9229V44.5068Z" fill="white"/>
<path d="M117.452 45.0948C117.452 46.0746 117.526 47.6178 117.624 48.5241L117.771 50.1897H119.657H121.543L121.69 48.5241C121.788 47.6178 121.861 46.0746 121.861 45.0948V43.3312H119.657H117.452V45.0948Z" fill="white"/>
<path d="M13.8395 54.0597C13.8395 54.1577 12.9822 54.966 11.9534 55.8234C10.0428 57.4155 9.65091 57.7584 4.50703 62.3389C2.96386 63.7107 1.32271 65.1558 0.857315 65.5722L0 66.3316L0.930799 67.2869C1.64115 68.0217 2.00857 68.2177 2.47397 68.1197L3.06184 68.0217V72.0388C3.06184 74.2679 3.13532 76.5949 3.20881 77.2072L3.35577 78.3095L4.89894 78.4075L6.44211 78.481L6.58908 77.6236C6.66256 77.1582 6.73604 74.0474 6.73604 70.7161V64.6904L7.76482 63.8576C9.33248 62.6329 13.2026 59.0077 13.4721 58.4933C13.6925 58.1014 14.1579 58.4688 17.4892 61.5306L21.2369 65.0334L21.2124 70.8386C21.1879 74.0229 21.2369 77.0358 21.3349 77.5012L21.4819 78.3585H23.172H24.8621V73.876C24.8621 68.6341 24.9846 67.5808 25.597 67.5808C25.9889 67.5808 27.3116 66.1356 27.3116 65.7192C27.3116 65.6212 26.3318 64.617 25.1071 63.4657L22.9025 61.4081V58.2728C22.9025 56.3622 22.8046 55.064 22.6576 54.966C22.5106 54.8681 21.6778 54.8926 20.8205 54.966L19.2283 55.1375V56.4847V57.8074L18.4445 57.3665C18.0281 57.1216 16.9258 56.2398 16.0195 55.3825C14.5254 53.9863 13.8395 53.5698 13.8395 54.0597Z" fill="white"/>
<path d="M124.531 58.1013C122.179 60.2813 119.338 62.8288 118.236 63.7351C117.133 64.6659 116.227 65.4987 116.227 65.5722C116.252 65.8661 117.868 67.5073 118.309 67.6787C118.701 67.8257 118.726 68.0461 118.603 69.5648C118.53 70.5201 118.53 72.9696 118.603 75.0026L118.75 78.7258H120.269H121.787L121.959 76.3988C122.032 75.1251 122.106 72.0388 122.106 69.5403V65.0088L125.584 61.653L129.062 58.3217L130.924 59.9139C131.928 60.7957 133.643 62.3634 134.721 63.3921L136.68 65.2782L136.533 67.4583C136.313 70.4466 136.288 75.2721 136.46 77.0602L136.631 78.5299L137.488 78.3339C137.978 78.2359 138.664 78.2114 139.032 78.2849C139.938 78.4564 139.962 78.3094 140.036 72.6756C140.085 70.1772 140.183 68.0216 140.281 67.9237C140.379 67.8257 140.648 67.8992 140.844 68.0706C141.261 68.4136 141.261 68.4381 142.289 66.9929L143 66.0621L139.987 63.1472L136.974 60.2323L137.146 57.4154L137.317 54.5985H136.019C135.308 54.5985 134.476 54.5251 134.182 54.4516C133.643 54.3046 133.618 54.3536 133.618 55.7988C133.618 56.8276 133.52 57.293 133.324 57.293C133.153 57.293 132.149 56.5826 131.12 55.7008C130.091 54.819 129.16 54.1087 129.038 54.1087C128.94 54.1087 126.907 55.8968 124.531 58.1013Z" fill="white"/>
<path d="M12.9822 62.2409C12.6147 62.5838 12.2963 63.1717 12.1983 63.7106C12.1003 64.4454 12.1738 64.7149 12.6882 65.2293C13.0311 65.5722 13.619 65.9151 13.9864 66.0131C14.5253 66.1601 14.7703 66.0621 15.2112 65.5232C15.5296 65.1803 15.848 64.4699 15.946 63.98C16.093 63.1717 16.0195 63.0002 15.3336 62.3879C14.4028 61.5551 13.815 61.5306 12.9822 62.2409Z" fill="white"/>
<path d="M128.352 62.241C127.519 62.7309 127.225 63.2453 127.348 64.1271C127.519 65.3028 128.132 65.8662 129.21 65.8662C130.385 65.8662 131.169 65.0579 131.169 63.8332C131.169 63.0738 131.047 62.8289 130.385 62.437C129.479 61.8736 129.038 61.8491 128.352 62.241Z" fill="white"/>
<path d="M8.76911 66.0133C8.57316 66.1112 8.45068 66.6501 8.45068 67.483V68.8057H9.92037H11.3656L11.5125 67.9728C11.6105 67.5319 11.635 66.8951 11.586 66.5766C11.5125 66.0623 11.3656 65.9888 10.2878 65.9398C9.62643 65.9153 8.91608 65.9398 8.76911 66.0133Z" fill="white"/>
<path d="M16.9503 66.0378C16.8523 66.1112 16.7788 66.7726 16.7788 67.5074V68.8057H18.1015C19.3752 68.8057 19.4242 68.7812 19.5712 68.0463C19.6447 67.6299 19.7182 66.9686 19.7182 66.5766C19.7182 65.8908 19.6937 65.8663 18.42 65.8663C17.6851 65.8663 17.0238 65.9398 16.9503 66.0378Z" fill="white"/>
<path d="M123.625 67.5075C123.698 68.8792 123.723 68.9281 124.409 69.0016C124.8 69.0506 125.486 69.0261 125.952 68.9281C126.785 68.7812 126.785 68.7812 126.711 67.5075L126.638 66.2337L125.094 66.1602L123.551 66.0868L123.625 67.5075Z" fill="white"/>
<path d="M132.149 67.434V68.8057H133.251C133.864 68.8057 134.427 68.8057 134.549 68.8057C134.647 68.8057 134.721 68.2178 134.721 67.5074V66.2337L133.447 66.1602L132.149 66.0868V67.434Z" fill="white"/>
<path d="M11.3901 74.5863V78.481L13.6436 78.4075C14.8929 78.3585 16.0686 78.285 16.2401 78.236C16.4605 78.1625 16.534 77.2072 16.534 74.5618V71.0101H15.4563C14.8929 71.0101 13.7171 70.9366 12.8843 70.8631L11.3901 70.6916V74.5863Z" fill="white"/>
<path d="M126.515 73.4351C126.515 74.7579 126.589 76.497 126.662 77.2808L126.809 78.7505L128.818 78.5545C129.895 78.4321 130.998 78.3831 131.243 78.4566C131.61 78.5545 131.659 78.3586 131.659 77.0359C131.659 76.1785 131.733 74.4884 131.806 73.2637L131.977 71.0102H129.234H126.515V73.4351Z" fill="white"/>
<path d="M136.583 82.0326C136.436 82.7185 136.313 83.4778 136.313 83.7228C136.313 84.6781 134.819 90.0179 133.717 93.0063C132.663 95.8966 131.61 98.1012 128.965 102.976C125.633 109.148 119.118 115.909 109.687 122.963C103.882 127.323 99.7181 129.405 92.7616 131.389C90.704 131.977 88.9404 132.516 88.8424 132.59C88.671 132.688 88.9649 136.631 89.1364 136.827C89.2588 136.974 94.0353 135.627 96.7787 134.696C101.751 132.982 108.169 129.552 112.186 126.491C118.726 121.494 121.151 119.314 125.144 114.88C129.847 109.687 131.757 106.895 134.868 100.649C138.42 93.5941 140.33 87.8379 140.845 82.694L141.016 81.0529H139.302C138.346 81.0529 137.415 80.9794 137.219 80.9059C136.95 80.8079 136.779 81.0774 136.583 82.0326Z" fill="white"/>
<path d="M3.30664 81.9838C3.30664 83.1106 4.33542 87.5196 5.26622 90.4835C9.52829 103.809 16.2888 113.753 26.895 122.229C36.0316 129.553 43.3065 133.472 52.3695 135.946C53.8147 136.338 55.015 136.656 55.0639 136.656C55.0884 136.656 55.1129 135.701 55.1129 134.549C55.1129 132.1 55.4804 132.443 51.4387 131.218C48.3034 130.263 47.3726 129.871 42.5227 127.422C39.9262 126.123 37.7217 124.776 36.203 123.625C34.9048 122.645 32.9207 121.151 31.745 120.294C30.5937 119.461 28.2178 117.55 26.5031 116.031C22.0941 112.161 19.7181 109.442 16.0929 104.078C12.1002 98.1258 9.18537 90.3365 7.83816 82.0083L7.71569 81.1265L5.51116 81.151L3.30664 81.1755V81.9838Z" fill="white"/>
<path d="M23.2456 83.8455C22.1678 84.9232 16.632 89.6752 15.1868 90.753C14.5255 91.2429 13.9131 91.6838 13.8641 91.7573C13.6681 91.9042 15.1378 93.3004 15.4807 93.3004C15.7257 93.3004 15.7992 94.2802 15.7992 98.0524V102.78L17.0974 102.927C17.7832 103 18.4691 102.976 18.5671 102.878C18.6651 102.78 18.7875 100.257 18.8365 97.2686C18.9345 91.0224 18.5916 91.9532 21.9718 88.8424C24.4703 86.5644 23.9314 86.4664 27.4832 89.7732L29.7612 91.8552V97.6115V103.343H31.2308H32.7005V98.7383V94.1088L33.5578 93.227C34.0232 92.7371 34.4152 92.1982 34.4152 92.0022C34.4152 91.8063 33.7048 91.0224 32.823 90.2386L31.2308 88.8424V86.4174V83.9924H29.8836H28.5364V85.3886V86.7848L27.5076 85.8051C26.087 84.4578 24.3233 83.0127 24.1519 83.0372C24.0784 83.0616 23.662 83.4291 23.2456 83.8455Z" fill="white"/>
<path d="M118.897 84.1638C118.309 84.6536 116.717 86.0254 115.37 87.1766C114.023 88.3279 112.112 89.92 111.132 90.7283L109.344 92.149L110.226 93.0553L111.108 93.9616L111.083 98.7136L111.034 103.466H112.48H113.9L113.974 97.8073L114.023 92.1245L116.987 89.5036L119.926 86.8827L121.567 88.2544C122.473 88.9892 123.649 90.0425 124.188 90.6059L125.168 91.6101V97.2194C125.168 100.281 125.217 102.853 125.29 102.927C125.364 103 126.074 103.074 126.858 103.123L128.303 103.221L128.254 98.2237C128.205 93.6922 128.23 93.2513 128.597 93.3983C128.867 93.4962 129.209 93.2758 129.65 92.7614C130.018 92.345 130.312 91.9041 130.312 91.8061C130.312 91.7081 129.601 91.0468 128.72 90.3364L127.127 89.0627L127.225 86.5397L127.299 83.9923H125.927H124.555V85.217C124.555 85.8784 124.482 86.4418 124.408 86.4418C124.335 86.4418 123.429 85.7314 122.4 84.8496C121.371 83.9678 120.391 83.2574 120.244 83.2574C120.097 83.2574 119.51 83.6739 118.897 84.1638Z" fill="white"/>
<path d="M119.142 90.214C118.334 90.6059 118.04 91.6837 118.554 92.4675C118.775 92.8104 119.216 93.2024 119.559 93.3493C120.465 93.7657 121.469 92.9574 121.567 91.7082C121.616 91.1938 121.543 90.6794 121.445 90.5814C120.979 90.116 119.73 89.9201 119.142 90.214Z" fill="white"/>
<path d="M22.9027 90.7773C21.9719 91.953 22.6088 93.5452 23.9805 93.5452C25.1808 93.5452 25.8421 92.9573 25.8421 91.855C25.8421 90.1159 23.956 89.4301 22.9027 90.7773Z" fill="white"/>
<path d="M26.92 93.4228C26.3811 94.2556 26.626 94.77 27.6303 94.77C28.5611 94.77 29.0265 94.4026 29.0265 93.6433C29.0265 92.6635 27.5323 92.492 26.92 93.4228Z" fill="white"/>
<path d="M115.346 93.3983C115.027 94.7455 115.64 95.2844 117.109 94.917C117.55 94.7945 117.697 94.5986 117.697 94.0842C117.697 93.1779 117.281 92.8105 116.301 92.8105C115.664 92.8105 115.468 92.9329 115.346 93.3983Z" fill="white"/>
<path d="M122.547 93.4229C122.204 94.2067 122.669 94.8191 123.551 94.7211C124.09 94.6476 124.188 94.5007 124.261 93.7168C124.335 92.8595 124.31 92.8105 123.576 92.8105C123.012 92.8105 122.767 92.9575 122.547 93.4229Z" fill="white"/>
<path d="M20.4533 93.5699C19.8899 94.6232 20.7962 95.1866 21.825 94.4028C22.2904 94.0598 22.2659 94.0353 21.678 93.5454C20.8942 92.9331 20.7717 92.9331 20.4533 93.5699Z" fill="white"/>
<path d="M22.3394 96.8766C22.119 97.097 22.119 99.4975 22.3149 101.629L22.4619 103.221L24.348 103.172L26.2096 103.123L26.2831 100.061L26.3566 96.9746H24.7644C23.9071 96.9746 23.0253 96.9256 22.8538 96.8521C22.6579 96.7786 22.4374 96.8031 22.3394 96.8766Z" fill="white"/>
<path d="M117.697 99.2771C117.697 100.673 117.77 102.168 117.844 102.584L118.015 103.343L119.926 103.294L121.861 103.221V99.963V96.7297H119.779H117.697V99.2771Z" fill="white"/>
<path d="M39.8038 104.47C38.1136 105.915 35.9091 107.728 34.9048 108.536C33.9006 109.344 33.0432 110.153 32.9942 110.324C32.9453 110.496 33.2637 111.035 33.6556 111.5L34.4149 112.357V116.864V121.396L35.8111 121.69C36.5705 121.837 37.2563 121.886 37.3298 121.812C37.4033 121.739 37.4768 119.167 37.5013 116.105C37.5013 111.696 37.5993 110.422 37.8687 110.055C38.0647 109.785 39.0444 108.879 40.0487 108.022C41.053 107.189 42.0818 106.258 42.3022 105.989C42.7186 105.523 42.7676 105.548 44.7517 107.213C45.8785 108.144 47.2257 109.369 47.7401 109.908L48.6954 110.912L48.8423 116.742L48.9893 122.572L50.3855 122.645L51.7572 122.719L51.8552 117.428L51.9287 112.161L52.737 111.402C53.1534 111.01 53.5208 110.618 53.5208 110.594C53.5208 110.545 52.7615 109.883 51.8062 109.099L50.116 107.703L50.0426 105.254L49.9691 102.804L48.5484 102.755L47.1277 102.731L47.1767 103.76C47.2257 104.323 47.1767 104.862 47.1032 104.935C46.9317 105.107 44.3598 103.221 43.6249 102.388C43.3555 102.118 43.0861 101.874 43.0126 101.874C42.9391 101.898 41.4939 103.049 39.8038 104.47Z" fill="white"/>
<path d="M100.918 102.339C100.649 102.608 99.2772 103.76 97.8565 104.911C96.4358 106.087 94.2558 107.85 93.0065 108.879L90.7285 110.741L91.4144 111.476L92.1002 112.186L92.2227 117.379L92.3452 122.547L93.5699 122.474C94.2313 122.449 94.8681 122.351 94.9661 122.302C95.0886 122.229 95.1621 119.657 95.1621 116.57V110.961L96.9257 109.418C97.881 108.561 99.2527 107.336 99.963 106.699L101.237 105.523L102.045 106.209C102.51 106.577 103.784 107.703 104.911 108.708C106.503 110.128 106.871 110.569 106.65 110.839C106.454 111.084 106.43 112.676 106.552 116.57C106.748 122.547 106.601 122.106 108.463 121.812L109.369 121.641V120.024C109.369 116.962 109.687 112.186 109.883 112.308C109.981 112.357 110.349 112.014 110.692 111.525L111.304 110.618L110.79 109.883C110.52 109.491 109.736 108.781 109.075 108.291L107.85 107.434L107.948 104.886L108.022 102.363H106.626H105.229L105.156 103.637L105.082 104.911L103.466 103.392C102.559 102.559 101.727 101.874 101.604 101.874C101.482 101.874 101.188 102.094 100.918 102.339Z" fill="white"/>
<path d="M41.9105 109.001C41.1267 109.614 41.1022 110.447 41.8371 111.132C42.5719 111.818 43.2578 111.818 43.9191 111.108C44.5805 110.398 44.605 109.614 43.9681 108.977C43.3312 108.34 42.7189 108.365 41.9105 109.001Z" fill="white"/>
<path d="M99.9385 109.099C99.5956 109.418 99.3262 109.859 99.3262 110.079C99.3262 110.643 100.649 111.916 101.261 111.916C101.8 111.916 102.755 110.838 102.755 110.202C102.755 109.491 101.8 108.487 101.139 108.487C100.796 108.487 100.257 108.756 99.9385 109.099Z" fill="white"/>
<path d="M70.4225 109.246C68.12 110.153 66.8953 113.215 67.8506 115.542C68.6589 117.428 69.9571 118.285 72.0147 118.285C73.7293 118.285 74.7581 117.869 75.7379 116.742C77.0361 115.248 77.33 113.459 76.5707 111.794C75.5664 109.565 72.6515 108.365 70.4225 109.246Z" fill="white"/>
<path d="M38.8238 112.014C38.3584 112.602 38.6279 113.484 39.4117 113.851C40.2935 114.268 40.8814 113.974 40.9794 113.068C41.1018 112.014 39.5097 111.231 38.8238 112.014Z" fill="white"/>
<path d="M103.539 111.965C103.368 112.137 103.245 112.529 103.245 112.847C103.245 113.361 103.343 113.41 104.298 113.337C105.254 113.263 105.327 113.214 105.401 112.455C105.474 111.72 105.45 111.671 104.666 111.671C104.2 111.671 103.711 111.794 103.539 111.965Z" fill="white"/>
<path d="M45.3643 112.088C45.2664 112.161 45.1929 112.553 45.1929 112.945C45.1929 113.557 45.2664 113.631 46.0012 113.631C46.883 113.631 47.6423 113.018 47.6423 112.333C47.6423 112.014 47.3974 111.916 46.5891 111.916C46.0012 111.916 45.4378 111.99 45.3643 112.088Z" fill="white"/>
<path d="M96.9254 112.137C96.7294 112.259 96.6315 112.7 96.6805 113.288C96.7539 114.194 96.8029 114.243 97.6847 114.317C98.787 114.415 99.3259 114.047 99.3259 113.239C99.3259 112.284 97.8072 111.573 96.9254 112.137Z" fill="white"/>
<path d="M59.2036 115.346C58.2483 115.933 57.4399 117.183 57.4399 118.114C57.4399 119.779 58.8851 121.543 60.4773 121.861C61.6285 122.057 63.4166 121.249 64.0535 120.196C64.6659 119.191 64.6904 117.526 64.127 116.57C63.2207 115.003 60.7712 114.39 59.2036 115.346Z" fill="white"/>
<path d="M81.3711 115.297C78.8481 116.987 78.8726 119.926 81.4446 121.665C82.1059 122.106 82.5223 122.229 83.2082 122.131C84.4329 121.959 85.7801 121.102 86.27 120.171C86.8334 119.093 86.7599 117.183 86.1721 116.35C85.1433 114.954 82.7183 114.415 81.3711 115.297Z" fill="white"/>
<path d="M100.771 116.007C99.1302 116.105 99.1302 116.105 99.0077 116.889C98.9343 117.33 98.9588 118.799 99.0322 120.171L99.1547 122.669L101.016 122.522C102.045 122.449 102.902 122.375 102.927 122.351C102.951 122.327 103.025 120.857 103.074 119.069C103.147 116.227 103.123 115.835 102.78 115.884C102.559 115.909 101.653 115.958 100.771 116.007Z" fill="white"/>
<path d="M40.8814 117.575C40.9549 118.407 41.0284 119.877 41.0284 120.832V122.572H43.1104H45.1925V119.706C45.1925 118.138 45.266 116.693 45.3395 116.472C45.4619 116.129 45.168 116.08 43.1104 116.08H40.71L40.8814 117.575Z" fill="white"/>
<path d="M70.7409 121.396C70.447 121.445 69.7611 122.008 69.1977 122.621L68.1689 123.723L68.3159 125.854C68.3894 127.005 68.5364 130.851 68.6098 134.378L68.7813 140.82H72.1126H75.4439V134.892C75.4439 131.61 75.4929 127.715 75.5663 126.197C75.6888 123.551 75.6643 123.453 75.0765 122.792C73.9742 121.592 72.382 121.077 70.7409 121.396Z" fill="white"/>
<path d="M59.3751 124.262C58.1994 124.948 58.1259 125.413 58.3218 132.541L58.4933 139.106L60.8938 139.13C62.241 139.155 63.5147 139.179 63.7597 139.203C64.1516 139.228 64.1761 138.763 64.2496 133.104C64.3231 126.54 64.2006 125.609 63.1963 124.654C62.437 123.943 60.3304 123.723 59.3751 124.262Z" fill="white"/>
<path d="M80.9554 124.335C79.3632 125.143 79.1673 125.903 79.4122 130.532C79.5102 132.761 79.6082 135.701 79.6082 137.097V139.595L80.7104 139.448C81.3228 139.375 82.6945 139.301 83.7723 139.277L85.7318 139.228L85.7073 132.59C85.6828 128.156 85.5604 125.78 85.3889 125.413C84.7521 124.237 82.3271 123.649 80.9554 124.335Z" fill="white"/>
</svg>
