<svg width="256" height="365" viewBox="0 0 256 365" fill="none" xmlns="http://www.w3.org/2000/svg">
<path d="M127.512 1.79724C125.802 3.59442 110.11 17.4459 106.998 19.9006L105.332 21.2594L106.822 22.8812C107.655 23.7579 108.62 24.5031 109.014 24.5031C109.935 24.5031 110.241 27.9221 110.241 37.8724V45.8063L113.003 45.6309C114.493 45.5433 115.808 45.3679 115.896 45.2803C115.984 45.1926 116.071 39.5381 116.027 32.7438L115.984 20.3389L122.559 14.509L129.134 8.67913L135.709 14.7282L142.328 20.8211L142.24 33.1822L142.196 45.5433H145.002H147.807L148.114 42.8694C148.245 41.3791 148.377 36.6889 148.377 32.4808V24.8538L150.349 23.1004C151.445 22.1361 152.322 21.0841 152.322 20.7772C152.322 20.4704 151.796 19.8567 151.138 19.4184C149.779 18.5417 138.777 8.8983 132.991 3.50675L129.221 5.49853e-05L127.512 1.79724Z" fill="#324F5D"/>
<path d="M106.954 6.13681C100.028 7.36416 90.6919 9.77501 86.2208 11.5284C84.1168 12.3174 82.0566 13.1502 81.6183 13.2817C81.18 13.4132 80.8731 13.8077 80.9608 14.1145C81.2238 14.9474 84.862 16.6131 86.44 16.6131C87.2728 16.6131 88.5879 16.8761 89.4207 17.2267C90.8672 17.8404 91.3932 17.7527 98.2751 15.9994C102.352 14.9474 106.253 13.8077 106.954 13.4132C108.182 12.7995 114.625 6.09298 114.625 5.47931C114.625 5.04097 111.995 5.26014 106.954 6.13681Z" fill="#324F5D"/>
<path d="M144.169 6.88193C145.44 9.38045 149.648 13.5008 151.358 13.9392C152.278 14.2022 155.96 15.1227 159.555 15.9993C163.193 16.876 167.05 18.1034 168.19 18.6732L170.206 19.769L173.713 17.0075C175.642 15.4733 177.264 14.0707 177.264 13.8515C177.307 13.457 176.343 13.0625 169.943 10.8708C163.763 8.76678 152.454 6.26826 147.369 5.82992L143.468 5.52309L144.169 6.88193Z" fill="#324F5D"/>
<path d="M127.424 16.0432C127.118 16.1747 126.592 16.8322 126.197 17.5335C124.97 19.9882 126.548 23.188 129.002 23.188C130.142 23.188 132.115 21.5662 132.641 20.2512C133.605 17.7088 130.186 14.9035 127.424 16.0432Z" fill="#324F5D"/>
<path d="M74.5173 19.1554C73.0708 20.5142 69.2134 23.9333 65.9697 26.7386C62.726 29.544 59.6577 32.2617 59.1755 32.7877L58.2988 33.7958L59.7453 34.9355L61.1919 36.119L61.3672 40.9407C61.4549 43.6146 61.5425 47.7788 61.5425 50.2335L61.5864 54.7483H64.2164H66.8026L67.1094 53.1703C67.2847 52.2937 67.2847 47.5158 67.1532 42.5187L66.9341 33.489L71.9311 28.6673L76.9282 23.8456L82.2759 28.5796L87.6236 33.3137L87.6674 43.9214V54.5292L90.4289 54.6607L93.1466 54.7922V45.9816V37.171L95.0315 35.4177L96.8725 33.6643L95.7328 32.7C95.1191 32.174 93.9356 31.2096 93.1028 30.596L91.6124 29.4125V25.2483V21.0841L89.2893 20.7772C87.9742 20.6019 86.8346 20.6019 86.7031 20.7334C86.5277 20.8649 86.4401 21.8731 86.4839 22.9689V24.9414L84.4675 23.2319C83.3279 22.2676 81.3115 20.3827 79.9965 19.0677C78.6815 17.7089 77.498 16.613 77.3665 16.613C77.235 16.6569 75.9638 17.7527 74.5173 19.1554Z" fill="#324F5D"/>
<path d="M178.403 18.98C177.22 19.9444 174.151 22.5744 171.609 24.7223C169.067 26.9139 165.691 29.7631 164.07 31.0781C162.448 32.3932 161.089 33.7082 161.089 33.9712C161.089 34.541 162.316 35.6807 163.412 36.0314C164.07 36.2944 164.157 37.1272 164.157 45.5433V54.7483H166.743C169.023 54.7483 169.33 54.6607 169.593 53.7402C169.724 53.2142 169.856 48.3048 169.856 42.8694V33.0068L174.151 29.4563C176.474 27.5276 178.754 25.5113 179.192 25.0291C180.025 24.1086 180.069 24.1524 185.504 29.018L190.983 33.9273L190.677 38.486C190.545 40.9846 190.545 45.6748 190.72 48.9185L191.027 54.7922L193.482 54.6607L195.937 54.5292L196.068 45.5871L196.156 36.6889L197.471 35.4615C198.216 34.7602 198.786 34.015 198.786 33.7082C198.786 33.4452 197.515 31.9986 195.98 30.5083L193.175 27.7906L193.526 25.3798C193.701 24.0647 193.964 22.0484 194.096 20.9087L194.271 18.8485L191.816 18.5855C190.457 18.4102 189.099 18.2787 188.748 18.2349C188.266 18.1472 188.134 18.7609 188.222 20.9526L188.353 23.7579L186.644 22.3991C185.723 21.6977 184.277 20.3389 183.444 19.4622C181.033 16.9637 180.858 16.9199 178.403 18.98Z" fill="#324F5D"/>
<path d="M119.008 24.9413V27.5714H121.638H124.312L124.181 25.029L124.049 22.5305L121.551 22.399L119.008 22.2675V24.9413Z" fill="#324F5D"/>
<path d="M134.964 22.9251C134.832 23.2757 134.789 24.2839 134.876 25.2044C135.008 26.9139 135.008 26.9139 137.112 27.0454L139.172 27.1769V24.7661V22.3114H137.199C135.884 22.3114 135.139 22.5306 134.964 22.9251Z" fill="#324F5D"/>
<path d="M198.786 26.1688C198.786 26.651 199.706 28.3605 200.802 30.0262C202.906 33.1822 202.994 33.6644 202.029 37.7409C201.81 38.7491 201.986 39.0121 203.432 39.7573C205.58 40.8531 209.656 44.5351 211.059 46.5953C212.067 47.998 212.286 48.1295 213.908 47.8665C215.486 47.6473 215.881 47.8227 217.853 49.4445C219.037 50.4527 220.22 51.2417 220.483 51.2855C220.702 51.2855 222.061 51.2855 223.464 51.2417C225.787 51.1979 226.094 51.2855 227.365 52.6444L228.768 54.0909L227.979 52.7759C225.174 48.261 216.056 38.7052 209.744 33.6644C201.635 27.2208 198.786 25.2483 198.786 26.1688Z" fill="#324F5D"/>
<path d="M53.4768 30.0261C46.4195 35.4615 40.2828 41.0722 34.4968 47.2089C28.886 53.1265 26.6067 56.151 24.1082 60.9289L22.4863 63.9973L24.415 62.8137C25.4232 62.2001 27.9655 60.0522 30.0257 58.0797C32.0859 56.1072 34.6283 53.8278 35.7241 52.995C36.8199 52.1622 38.5733 50.7156 39.6253 49.7951C41.291 48.3048 41.6855 48.0856 43.0882 48.3048C44.5347 48.5678 44.7977 48.3925 47.7345 45.4118C49.4441 43.6584 51.8549 41.4667 53.0384 40.5024C54.2658 39.5819 55.3616 38.6614 55.5808 38.5299C55.7561 38.3545 55.6246 37.5217 55.2301 36.645C53.9151 33.5328 54.3534 31.9987 57.5533 28.0536C58.3861 27.0454 58.8683 26.2564 58.6491 26.2564C58.4738 26.2564 56.1506 27.9659 53.4768 30.0261Z" fill="#324F5D"/>
<path d="M179.192 30.2014C177.22 30.9905 176.782 33.3575 178.228 35.1985C179.981 37.3902 183.444 35.9437 183.444 32.963C183.444 31.8233 181.647 29.7631 180.727 29.8069C180.42 29.8069 179.718 29.9823 179.192 30.2014Z" fill="#324F5D"/>
<path d="M75.0433 30.9905C74.0351 32.0863 74.1228 33.9273 75.2186 34.9793C76.7528 36.382 77.8048 36.4259 79.1637 35.0232C80.654 33.5328 80.7417 32.8753 79.5143 31.3411C78.4185 29.9385 76.1391 29.7631 75.0433 30.9905Z" fill="#324F5D"/>
<path d="M124.488 36.645C124.532 39.4942 124.575 42.694 124.619 43.7899L124.707 45.7624H129.31H133.912L133.824 38.749L133.693 31.7356L129.09 31.6041L124.488 31.4726V36.645Z" fill="#324F5D"/>
<path d="M69.3891 36.119C68.7754 37.4778 69.1699 37.9162 71.3616 38.3107C72.9396 38.6175 72.9834 38.5737 72.9834 37.3463C72.9834 35.8121 72.2821 35.0231 70.9233 35.0231C70.2657 35.0231 69.7397 35.4176 69.3891 36.119Z" fill="#324F5D"/>
<path d="M82.7582 35.3299C81.6624 35.5491 80.9172 37.434 81.6185 38.1353C81.8815 38.3983 82.9335 38.5298 83.9855 38.4421C85.8704 38.3106 85.9142 38.2668 85.9142 36.7764C85.9142 35.4614 85.7827 35.2423 84.8184 35.1984C84.2047 35.1546 83.2842 35.1984 82.7582 35.3299Z" fill="#324F5D"/>
<path d="M172.354 35.33C171.828 35.8122 172.003 37.5217 172.617 38.0038C173.362 38.6175 175.992 38.1353 175.992 37.3463C175.992 36.0313 175.072 35.0232 173.844 35.0232C173.187 35.0232 172.485 35.1547 172.354 35.33Z" fill="#324F5D"/>
<path d="M185.197 35.6368C184.934 35.9875 184.759 36.7327 184.847 37.3025C184.934 38.1353 185.285 38.3107 186.863 38.4422L188.704 38.5737V36.8203C188.704 35.067 188.66 35.0231 187.214 35.0231C186.425 35.0231 185.504 35.33 185.197 35.6368Z" fill="#324F5D"/>
<path d="M73.4214 46.4637C73.4214 48.7869 73.5529 51.5922 73.6844 52.7319L73.9912 54.7483H77.3664C81.443 54.7483 81.3115 55.0551 81.3115 47.6472V42.5187L77.3664 42.3872L73.4214 42.2557V46.4637Z" fill="#324F5D"/>
<path d="M176.431 47.735C176.431 55.4059 176.212 55.0114 180.376 54.836L183.882 54.6607V50.6718C183.882 48.4363 184.014 45.6309 184.145 44.4474L184.408 42.2557H180.42H176.431V47.735Z" fill="#324F5D"/>
<path d="M209.613 56.151C207.289 58.1673 202.994 61.8494 200.101 64.3479L194.797 68.8627L195.761 69.9148C196.287 70.4846 197.076 71.0544 197.515 71.1859C198.26 71.4489 198.347 72.1941 198.435 80.7417L198.567 89.9906L200.977 89.8591C202.292 89.8153 203.476 89.6399 203.607 89.5084C203.739 89.4208 203.87 84.5552 203.914 78.7253L204.046 68.1176L207.421 65.1369C209.306 63.515 211.498 61.4987 212.287 60.6658L213.733 59.1317L218.642 63.5589C221.316 65.9697 223.683 68.3367 223.859 68.7312C223.99 69.1696 224.122 73.9913 224.078 79.4267C224.078 84.9059 224.122 89.4646 224.253 89.5523C224.341 89.6399 225.524 89.8153 226.839 89.8591L229.25 90.0344L229.557 80.7417L229.864 71.4489L231.267 70.1778L232.713 68.8627L229.557 65.8821L226.357 62.8575L226.883 59.0002C227.497 54.4853 227.365 54.2661 224.253 53.9593C221.842 53.7401 221.755 53.8278 221.492 57.2468L221.36 58.6933L217.678 55.625C215.662 53.9154 213.952 52.5566 213.908 52.5566C213.908 52.5566 211.936 54.1785 209.613 56.151Z" fill="#324F5D"/>
<path d="M42.0364 53.9155C41.598 54.4415 39.757 55.9319 38.0037 57.2469C36.2503 58.5619 33.182 61.1919 31.1656 63.0329C29.1931 64.9178 27.0453 66.8026 26.3878 67.241C24.9412 68.1615 24.8974 68.556 26.3001 70.3532C27.3521 71.712 27.3959 72.0627 27.4398 78.0679C27.4836 81.5308 27.6151 85.6073 27.7904 87.1853L28.0534 89.9907L30.4643 89.8592C31.7793 89.8153 32.9628 89.64 33.0505 89.5523C33.182 89.4647 33.3135 84.6868 33.3573 78.9446L33.445 68.556L38.179 64.0849L42.9131 59.5701L44.2281 60.7974C44.9732 61.4988 47.2526 63.5589 49.3128 65.4438L53.0386 68.8628V79.0761C53.0386 84.6868 53.1263 89.4208 53.2578 89.5085C53.3893 89.64 54.5728 89.8153 55.8878 89.8592L58.2987 89.9907L58.4302 81.3116L58.5179 72.6325L60.052 71.186C60.8849 70.397 61.5862 69.5642 61.5862 69.3012C61.5862 69.0381 60.2712 67.6355 58.6494 66.189L55.7125 63.5589V59.0441L55.6687 54.5292L52.951 54.3977L50.1895 54.2662V56.5017V58.7811L47.0334 55.888C45.2801 54.31 43.6582 52.995 43.3514 52.995C43.0884 52.995 42.5186 53.4334 42.0364 53.9155Z" fill="#324F5D"/>
<path d="M119.885 54.3538C116.466 54.7483 111.995 55.8442 107.217 57.3784C97.6616 60.4467 89.8592 65.2684 81.5308 73.2023C73.29 81.1801 67.8985 89.6838 64.5233 100.116C62.2439 107.217 61.5864 111.338 61.5864 118.57C61.5864 137.068 66.9341 150.569 79.0761 162.579C91.1742 174.546 103.754 181.077 119.447 183.576C123.567 184.233 135.183 184.145 140.049 183.444C150.174 181.91 162.886 176.606 170.82 170.688C180.946 163.061 189.669 151.489 193.701 140.268C196.068 133.693 197.339 122.515 196.594 114.801C195.586 103.711 193.088 95.7767 187.915 86.8784C180.376 73.9913 166.13 62.0247 152.98 57.5975C144.432 54.7045 141.802 54.2662 132.159 54.0908C127.205 54.0032 121.682 54.1347 119.885 54.3538ZM140.136 62.5946C152.498 64.7424 162.404 69.9586 171.653 79.2514C180.332 87.9743 185.943 98.845 187.915 110.592C188.792 115.853 188.573 127.03 187.521 131.896C185.899 139.084 183.532 144.739 179.499 150.919C177.439 154.119 172.267 159.949 171.565 159.949C171.127 159.949 171.039 123.523 171.434 121.945C171.697 121.025 171.784 120.981 173.231 121.595C174.721 122.208 174.765 122.208 177.001 120.499C178.272 119.578 179.718 118.614 180.288 118.439C181.121 118.088 180.726 117.65 176.036 113.792C173.187 111.425 168.935 107.524 166.568 105.113L162.272 100.774L162.492 91.3495L162.711 81.9252L158.284 81.9691C155.829 81.9691 152.892 82.1444 151.665 82.2759C149.736 82.5389 149.473 82.7142 149.341 83.6786C149.078 85.9579 148.772 86.7469 148.114 86.7469C147.281 86.7469 137.594 78.4624 133.035 73.8598C131.238 72.0188 129.616 70.5285 129.397 70.5285C129.178 70.5285 128.038 71.6243 126.811 72.9832C125.584 74.2982 121.595 78.0679 117.957 81.3116C114.318 84.5553 109.058 89.2893 106.253 91.9193C87.8866 108.971 84.2485 112.302 81.0924 115.02C79.1637 116.685 77.5419 118.132 77.4981 118.263C77.4542 118.395 78.7254 119.359 80.3034 120.411C83.1088 122.252 83.6786 122.384 85.7826 121.595C86.3525 121.376 86.3963 124.926 86.1333 155.347L86.0895 159.292L83.4594 156.443C79.4267 152.059 77.0159 148.728 75.1749 144.87C69.1258 132.378 67.8546 118.395 71.449 104.456C72.5887 100.204 75.3502 93.4973 77.2789 90.3413C84.38 78.813 98.7136 67.8108 111.338 64.1726C120.148 61.6741 131.151 61.0604 140.136 62.5946ZM129.792 83.0211C129.923 83.3717 132.948 86.2648 136.454 89.4208C140.005 92.5768 147.457 99.6779 152.98 105.201L163.061 115.195L162.93 141.013L162.842 166.831L159.599 168.672C157.845 169.68 154.733 171.171 152.673 172.003C148.947 173.538 139.654 175.905 139.172 175.466C139.041 175.335 139.041 169.373 139.128 162.229L139.26 149.21L134.131 144.914L129.003 140.662L127.425 141.934C126.548 142.635 124.356 144.476 122.559 146.098C120.806 147.676 119.184 148.991 118.965 148.991C118.746 148.991 118.57 154.952 118.57 162.185V175.379L116.51 175.072C111.645 174.371 102.264 170.776 97.9246 167.971L95.3384 166.305L95.2507 140.443L95.1192 114.581L99.5026 110.242C101.913 107.875 108.532 101.65 114.187 96.4342C119.841 91.218 125.452 85.9579 126.679 84.7306C129.134 82.2759 129.441 82.0567 129.792 83.0211Z" fill="#324F5D"/>
<path d="M125.584 97.7492C121.2 99.5902 119.053 105.42 121.069 110.023C123.129 114.713 129.353 116.116 134.087 112.959C138.953 109.76 139.128 102.22 134.438 98.6697C133.167 97.7054 132.378 97.4862 129.792 97.3985C128.082 97.3109 126.197 97.4862 125.584 97.7492Z" fill="#324F5D"/>
<path d="M110.023 121.463C107.875 121.682 105.552 121.77 104.938 121.682L103.755 121.551L103.492 125.627C103.097 130.624 103.492 133.824 104.412 133.474C104.763 133.342 107.305 133.211 110.067 133.211H115.064V127.074C115.064 122.428 114.932 120.937 114.538 120.981C114.231 121.025 112.215 121.244 110.023 121.463Z" fill="#324F5D"/>
<path d="M143.117 127.162V133.43L149.035 133.298L154.952 133.167V127.03V120.937H149.035H143.117V127.162Z" fill="#324F5D"/>
<path d="M230.171 57.203C230.741 60.9289 231.267 62.1563 233.634 64.7863C234.949 66.2766 236.045 67.8108 236.088 68.2491C236.22 70.0902 235.913 71.3175 234.773 73.3777C234.116 74.5612 233.678 75.9639 233.765 76.446C233.853 76.9282 235.036 79.6897 236.395 82.5828C237.71 85.4758 239.332 89.4208 239.99 91.3495L241.173 94.8562L244.504 94.9877C248.712 95.163 248.756 95.2507 248.932 101.694C249.063 106.034 249.151 106.604 250.071 107.568C251.342 108.927 252.263 108.971 252.263 107.656C252.263 105.201 250.816 98.3191 249.238 93.5412C245.469 81.8814 240.121 70.4847 234.335 61.7618C229.864 55.0552 229.864 55.099 230.171 57.203Z" fill="#324F5D"/>
<path d="M211.76 66.8025C210.314 69.038 211.234 71.0982 213.996 71.6681C215.092 71.8872 215.486 71.7119 216.275 70.7476C216.757 70.0901 217.196 69.0819 217.196 68.512C217.196 65.9697 213.163 64.6985 211.76 66.8025Z" fill="#324F5D"/>
<path d="M41.0284 67.0656C40.5024 67.6354 40.1079 68.5121 40.1079 69.0381C40.1079 70.134 41.5106 71.6681 42.8256 72.1065C43.9214 72.4571 45.7186 71.2298 46.2885 69.7833C47.3405 67.0218 43.0886 64.8739 41.0284 67.0656Z" fill="#324F5D"/>
<path d="M18.0157 71.0545C13.6324 79.2514 9.68732 90.1222 7.49563 99.9409C6.88196 102.746 6.35596 105.376 6.35596 105.771C6.35596 107.261 7.89014 106.297 11.6598 102.396C15.2542 98.7136 15.6487 98.0999 16.5692 95.0754C17.8404 91.0865 20.3827 84.3361 21.8731 80.9171C23.3634 77.6296 23.3196 76.0954 21.6539 72.5449C20.6896 70.4847 20.3389 69.1697 20.4704 68.1177C20.5581 67.2848 20.6019 66.5835 20.5581 66.5835C20.4704 66.5835 19.3307 68.5998 18.0157 71.0545Z" fill="#324F5D"/>
<path d="M205.975 71.1859C205.537 72.9393 206.019 73.5968 207.772 73.5968C209.569 73.5968 210.095 72.764 209.394 71.1421C208.693 69.6079 206.369 69.6518 205.975 71.1859Z" fill="#324F5D"/>
<path d="M218.949 71.2298C218.336 72.764 218.862 73.2461 220.746 73.0708C222.061 72.9393 222.237 72.8078 222.237 71.6243C222.237 70.4408 222.061 70.3093 220.79 70.1778C219.607 70.0463 219.3 70.2216 218.949 71.2298Z" fill="#324F5D"/>
<path d="M36.1626 72.0627C36.1626 73.3338 37.2584 73.9913 38.0474 73.2023C38.6611 72.5887 37.9598 71.2736 36.8639 71.0545C36.3818 70.923 36.1626 71.2298 36.1626 72.0627Z" fill="#324F5D"/>
<path d="M48.173 71.4929C47.8223 72.0627 49.1373 73.1586 50.277 73.1586C50.8468 73.1586 51.066 72.8079 51.066 72.0627C51.066 71.1422 50.8468 70.9669 49.7948 70.9669C49.0496 70.9669 48.3483 71.1861 48.173 71.4929Z" fill="#324F5D"/>
<path d="M39.231 79.6458C39.231 80.8293 39.3625 83.5909 39.5378 85.8264L39.8008 89.8591L43.2198 89.7714C46.595 89.6399 46.595 89.6399 46.858 88.3687C46.9895 87.6674 47.121 84.9497 47.121 82.3197V77.5418H43.176H39.231V79.6458Z" fill="#324F5D"/>
<path d="M210.183 80.6979C210.183 82.4512 210.314 85.2128 210.489 86.8346L210.752 89.8153H214.128H217.503L217.766 86.8346C217.941 85.2128 218.073 82.4512 218.073 80.6979V77.5419H214.128H210.183V80.6979Z" fill="#324F5D"/>
<path d="M24.766 96.741C24.766 96.9163 23.2319 98.3628 21.3908 99.897C17.9718 102.746 17.2705 103.36 8.0654 111.557C5.30388 114.011 2.36702 116.598 1.53418 117.343L0 118.702L1.66568 120.411C2.93686 121.726 3.59436 122.077 4.4272 121.902L5.47921 121.726V128.915C5.47921 132.904 5.61071 137.068 5.74222 138.164L6.00522 140.136L8.76674 140.312L11.5283 140.443L11.7913 138.909C11.9228 138.076 12.0543 132.509 12.0543 126.548V115.765L13.8953 114.274C16.7006 112.083 23.6264 105.595 24.1085 104.675C24.503 103.974 25.3359 104.631 31.2973 110.11L38.0038 116.378L37.96 126.767C37.9162 132.465 38.0038 137.857 38.1792 138.69L38.4422 140.224H41.4667H44.4912V132.202C44.4912 122.822 44.7104 120.937 45.8062 120.937C46.5076 120.937 48.8746 118.351 48.8746 117.606C48.8746 117.43 47.1212 115.633 44.9295 113.573L40.9845 109.891V104.28C40.9845 100.861 40.8092 98.5382 40.5462 98.3628C40.2832 98.1875 38.7928 98.2313 37.2586 98.3628L34.4095 98.6697V101.081V103.448L33.0068 102.659C32.2616 102.22 30.2891 100.642 28.6672 99.108C25.9934 96.6095 24.766 95.8643 24.766 96.741Z" fill="#324F5D"/>
<path d="M222.85 103.974C218.642 107.875 213.558 112.433 211.585 114.055C209.613 115.721 207.991 117.211 207.991 117.343C208.035 117.869 210.928 120.806 211.717 121.113C212.418 121.376 212.462 121.77 212.243 124.488C212.111 126.197 212.111 130.581 212.243 134.219L212.506 140.882H215.223H217.941L218.248 136.717C218.379 134.438 218.511 128.915 218.511 124.444V116.335L224.735 110.329L230.96 104.368L234.291 107.217C236.088 108.795 239.156 111.601 241.085 113.442L244.592 116.817L244.329 120.718C243.934 126.066 243.891 134.701 244.197 137.901L244.504 140.531L246.038 140.18C246.915 140.005 248.142 139.961 248.8 140.093C250.422 140.399 250.466 140.136 250.597 130.055C250.685 125.584 250.86 121.726 251.035 121.551C251.211 121.376 251.693 121.507 252.044 121.814C252.789 122.428 252.789 122.471 254.63 119.885L255.901 118.22L250.509 113.003L245.118 107.787L245.425 102.746L245.732 97.7053H243.408C242.137 97.7053 240.647 97.5738 240.121 97.4423C239.156 97.1793 239.113 97.267 239.113 99.8532C239.113 101.694 238.937 102.527 238.587 102.527C238.28 102.527 236.483 101.256 234.642 99.6779C232.801 98.0998 231.135 96.8287 230.916 96.8287C230.74 96.8287 227.102 100.029 222.85 103.974Z" fill="#324F5D"/>
<path d="M23.2319 111.381C22.5744 111.995 22.0046 113.047 21.8292 114.011C21.6539 115.326 21.7854 115.809 22.7059 116.729C23.3196 117.343 24.3716 117.956 25.0291 118.132C25.9935 118.395 26.4318 118.219 27.2208 117.255C27.7906 116.641 28.3605 115.37 28.5358 114.494C28.7988 113.047 28.6673 112.74 27.44 111.644C25.7743 110.154 24.7223 110.11 23.2319 111.381Z" fill="#324F5D"/>
<path d="M229.689 111.381C228.198 112.258 227.672 113.179 227.891 114.757C228.198 116.861 229.294 117.869 231.223 117.869C233.327 117.869 234.729 116.422 234.729 114.231C234.729 112.872 234.51 112.433 233.327 111.732C231.705 110.724 230.916 110.68 229.689 111.381Z" fill="#324F5D"/>
<path d="M15.6924 118.132C15.3417 118.307 15.1226 119.272 15.1226 120.762V123.129H17.7526H20.3388L20.6018 121.639C20.7771 120.85 20.8209 119.71 20.7333 119.14C20.6018 118.22 20.3388 118.088 18.4101 118C17.2266 117.957 15.9554 118 15.6924 118.132Z" fill="#324F5D"/>
<path d="M30.3332 118.176C30.1579 118.307 30.0264 119.491 30.0264 120.806V123.129H32.3934C34.6727 123.129 34.7604 123.085 35.0234 121.77C35.1549 121.025 35.2864 119.841 35.2864 119.14C35.2864 117.913 35.2426 117.869 32.9632 117.869C31.6482 117.869 30.4647 118 30.3332 118.176Z" fill="#324F5D"/>
<path d="M221.229 120.806C221.36 123.26 221.404 123.348 222.631 123.48C223.333 123.567 224.56 123.523 225.393 123.348C226.883 123.085 226.883 123.085 226.752 120.806L226.62 118.526L223.859 118.395L221.097 118.263L221.229 120.806Z" fill="#324F5D"/>
<path d="M236.483 120.674V123.129H238.455C239.551 123.129 240.559 123.129 240.779 123.129C240.954 123.129 241.085 122.077 241.085 120.806V118.526L238.806 118.395L236.483 118.263V120.674Z" fill="#324F5D"/>
<path d="M20.3828 133.474V140.443L24.4155 140.312C26.651 140.224 28.755 140.093 29.0619 140.005C29.4564 139.873 29.5879 138.164 29.5879 133.43V127.074H27.6592C26.651 127.074 24.547 126.942 23.0567 126.811L20.3828 126.504V133.474Z" fill="#324F5D"/>
<path d="M226.401 131.414C226.401 133.781 226.533 136.893 226.664 138.295L226.927 140.925L230.522 140.575C232.45 140.356 234.423 140.268 234.861 140.399C235.519 140.575 235.606 140.224 235.606 137.857C235.606 136.323 235.738 133.298 235.869 131.107L236.176 127.074H231.267H226.401V131.414Z" fill="#324F5D"/>
<path d="M244.417 146.799C244.154 148.026 243.935 149.385 243.935 149.824C243.935 151.533 241.261 161.089 239.288 166.437C237.403 171.609 235.519 175.554 230.785 184.277C224.823 195.323 213.163 207.421 196.287 220.045C185.899 227.848 178.447 231.573 165.998 235.124C162.316 236.176 159.16 237.14 158.985 237.272C158.678 237.447 159.204 244.504 159.511 244.855C159.73 245.118 168.278 242.707 173.187 241.042C182.085 237.973 193.57 231.836 200.758 226.357C212.462 217.415 216.802 213.514 223.947 205.58C232.363 196.287 235.782 191.29 241.348 180.113C247.704 167.489 251.123 157.188 252.044 147.983L252.351 145.046H249.282C247.573 145.046 245.907 144.914 245.557 144.783C245.074 144.607 244.768 145.09 244.417 146.799Z" fill="#324F5D"/>
<path d="M5.91748 146.711C5.91748 148.728 7.7585 156.618 9.42418 161.922C17.0512 185.767 29.1493 203.564 48.1293 218.73C64.4793 231.837 77.4979 238.85 93.7164 243.277C96.3026 243.978 98.4504 244.548 98.5381 244.548C98.5819 244.548 98.6258 242.839 98.6258 240.779C98.6258 236.395 99.2833 237.009 92.0507 234.817C86.44 233.108 84.7743 232.406 76.0952 228.023C71.4489 225.7 67.5038 223.289 64.7861 221.229C62.463 219.475 58.9124 216.802 56.8084 215.267C54.7482 213.777 50.4964 210.358 47.428 207.64C39.5379 200.715 35.2861 195.849 28.7987 186.249C21.6538 175.598 16.4376 161.659 14.0267 146.755L13.8075 145.177L9.86251 145.221L5.91748 145.265V146.711Z" fill="#324F5D"/>
<path d="M41.5982 150.043C39.6695 151.972 29.7631 160.475 27.1769 162.404C25.9934 163.281 24.8975 164.07 24.8099 164.201C24.4592 164.464 27.0892 166.963 27.7029 166.963C28.1412 166.963 28.2727 168.716 28.2727 175.466V183.926L30.5959 184.189C31.8233 184.321 33.0506 184.277 33.2259 184.102C33.4013 183.926 33.6204 179.411 33.7081 174.064C33.8834 162.886 33.2698 164.552 39.3188 158.985C43.7899 154.908 42.8255 154.733 49.1814 160.651L53.2579 164.376V174.677V184.934H55.888H58.518V176.694V168.409L60.0522 166.831C60.885 165.954 61.5863 164.99 61.5863 164.639C61.5863 164.289 60.3152 162.886 58.7372 161.483L55.888 158.985V154.645V150.306H53.4771H51.0663V152.804V155.303L49.2252 153.55C46.6829 151.139 43.5269 148.552 43.22 148.596C43.0885 148.64 42.3434 149.298 41.5982 150.043Z" fill="#324F5D"/>
<path d="M212.769 150.613C211.717 151.489 208.868 153.944 206.457 156.004C204.046 158.064 200.627 160.914 198.874 162.36L195.674 164.902L197.252 166.524L198.83 168.146L198.786 176.65L198.698 185.154H201.285H203.827L203.958 175.028L204.046 164.859L209.35 160.168L214.61 155.478L217.547 157.933C219.169 159.248 221.273 161.133 222.237 162.141L223.99 163.938V173.976C223.99 179.455 224.078 184.058 224.21 184.189C224.341 184.321 225.612 184.452 227.015 184.54L229.601 184.715L229.513 175.773C229.426 167.664 229.47 166.875 230.127 167.138C230.609 167.313 231.223 166.919 232.012 165.998C232.669 165.253 233.195 164.464 233.195 164.289C233.195 164.113 231.924 162.93 230.346 161.659L227.497 159.379L227.672 154.864L227.804 150.306H225.349H222.895V152.497C222.895 153.681 222.763 154.689 222.632 154.689C222.5 154.689 220.878 153.418 219.037 151.84C217.196 150.262 215.443 148.991 215.18 148.991C214.917 148.991 213.865 149.736 212.769 150.613Z" fill="#324F5D"/>
<path d="M213.207 161.44C211.761 162.141 211.235 164.07 212.155 165.472C212.55 166.086 213.339 166.787 213.952 167.05C215.574 167.795 217.371 166.349 217.547 164.113C217.634 163.193 217.503 162.272 217.328 162.097C216.495 161.264 214.259 160.914 213.207 161.44Z" fill="#324F5D"/>
<path d="M40.9845 162.448C39.3188 164.552 40.4585 167.401 42.9132 167.401C45.061 167.401 46.2445 166.349 46.2445 164.376C46.2445 161.264 42.8693 160.037 40.9845 162.448Z" fill="#324F5D"/>
<path d="M48.1733 167.182C47.209 168.672 47.6473 169.593 49.4445 169.593C51.1102 169.593 51.943 168.935 51.943 167.576C51.943 165.823 49.2692 165.516 48.1733 167.182Z" fill="#324F5D"/>
<path d="M206.413 167.138C205.843 169.549 206.939 170.513 209.569 169.856C210.358 169.636 210.621 169.286 210.621 168.365C210.621 166.743 209.876 166.086 208.123 166.086C206.983 166.086 206.632 166.305 206.413 167.138Z" fill="#324F5D"/>
<path d="M219.3 167.182C218.686 168.584 219.519 169.68 221.097 169.505C222.061 169.373 222.237 169.11 222.368 167.708C222.5 166.174 222.456 166.086 221.141 166.086C220.133 166.086 219.694 166.349 219.3 167.182Z" fill="#324F5D"/>
<path d="M36.6011 167.445C35.5929 169.33 37.2147 170.338 39.0558 168.935C39.8886 168.321 39.8448 168.278 38.7927 167.401C37.3901 166.305 37.1709 166.305 36.6011 167.445Z" fill="#324F5D"/>
<path d="M39.9764 173.362C39.5819 173.757 39.5819 178.053 39.9326 181.866L40.1956 184.715L43.5708 184.628L46.9021 184.54L47.0336 179.061L47.1651 173.538H44.3159C42.7818 173.538 41.2037 173.45 40.8969 173.319C40.5462 173.187 40.1517 173.231 39.9764 173.362Z" fill="#324F5D"/>
<path d="M210.621 177.658C210.621 180.157 210.752 182.83 210.884 183.576L211.19 184.934L214.609 184.847L218.072 184.715V178.885V173.099H214.346H210.621V177.658Z" fill="#324F5D"/>
<path d="M71.2294 186.951C68.2048 189.537 64.2598 192.781 62.4626 194.227C60.6654 195.674 59.1313 197.12 59.0436 197.427C58.9559 197.734 59.5258 198.698 60.2271 199.531L61.586 201.065V209.131V217.24L64.0845 217.766C65.4433 218.029 66.6707 218.117 66.8022 217.985C66.9337 217.854 67.0652 213.251 67.109 207.772C67.109 199.882 67.2843 197.602 67.7665 196.945C68.1172 196.463 69.8705 194.841 71.6677 193.307C73.4649 191.816 75.3059 190.151 75.7004 189.668C76.4456 188.836 76.5332 188.879 80.0838 191.86C82.1001 193.526 84.511 195.718 85.4315 196.682L87.141 198.479L87.404 208.911L87.667 219.344L90.1655 219.475L92.6202 219.607L92.7955 210.139L92.9271 200.715L94.3736 199.356C95.1187 198.654 95.7762 197.953 95.7762 197.909C95.7762 197.822 94.4174 196.638 92.7079 195.235L89.6834 192.737L89.5519 188.353L89.4204 183.97L86.878 183.882L84.3356 183.839L84.4233 185.68C84.511 186.688 84.4233 187.652 84.2918 187.784C83.985 188.09 79.3824 184.715 78.0674 183.225C77.5853 182.743 77.1031 182.304 76.9716 182.304C76.8401 182.348 74.2539 184.408 71.2294 186.951Z" fill="#324F5D"/>
<path d="M180.595 183.137C180.113 183.619 177.658 185.68 175.116 187.74C172.574 189.844 168.672 193 166.437 194.841L162.36 198.172L163.588 199.487L164.815 200.758L165.034 210.051L165.253 219.3L167.445 219.169C168.629 219.125 169.768 218.949 169.944 218.862C170.163 218.73 170.294 214.128 170.294 208.605V198.567L173.45 195.805C175.16 194.271 177.614 192.079 178.886 190.94L181.165 188.836L182.612 190.063C183.444 190.72 185.724 192.737 187.74 194.534C190.589 197.076 191.247 197.865 190.852 198.348C190.502 198.786 190.458 201.635 190.677 208.605C191.028 219.3 190.765 218.511 194.096 217.985L195.718 217.678V214.785C195.718 209.306 196.288 200.758 196.638 200.978C196.814 201.065 197.471 200.452 198.085 199.575L199.181 197.953L198.26 196.638C197.778 195.937 196.375 194.666 195.192 193.789L193 192.255L193.175 187.696L193.307 183.181H190.808H188.31L188.178 185.46L188.047 187.74L185.154 185.022C183.532 183.532 182.042 182.304 181.823 182.304C181.603 182.304 181.077 182.699 180.595 183.137Z" fill="#324F5D"/>
<path d="M74.9995 195.06C73.5968 196.156 73.553 197.646 74.868 198.874C76.183 200.101 77.4104 200.101 78.5939 198.83C79.7774 197.559 79.8212 196.156 78.6815 195.016C77.5419 193.877 76.446 193.92 74.9995 195.06Z" fill="#324F5D"/>
<path d="M178.841 195.235C178.228 195.805 177.746 196.594 177.746 196.989C177.746 197.997 180.113 200.276 181.208 200.276C182.173 200.276 183.882 198.348 183.882 197.208C183.882 195.937 182.173 194.139 180.989 194.139C180.376 194.139 179.411 194.622 178.841 195.235Z" fill="#324F5D"/>
<path d="M126.022 195.498C121.902 197.12 119.71 202.599 121.419 206.764C122.866 210.139 125.189 211.673 128.871 211.673C131.94 211.673 133.781 210.928 135.534 208.912C137.857 206.238 138.383 203.038 137.024 200.057C135.227 196.068 130.011 193.92 126.022 195.498Z" fill="#324F5D"/>
<path d="M69.476 200.452C68.6432 201.504 69.1253 203.082 70.528 203.739C72.106 204.484 73.158 203.958 73.3334 202.336C73.5525 200.452 70.7034 199.049 69.476 200.452Z" fill="#324F5D"/>
<path d="M185.285 200.364C184.978 200.671 184.759 201.372 184.759 201.942C184.759 202.862 184.935 202.95 186.644 202.819C188.354 202.687 188.485 202.599 188.617 201.241C188.748 199.926 188.704 199.838 187.302 199.838C186.469 199.838 185.592 200.057 185.285 200.364Z" fill="#324F5D"/>
<path d="M81.1799 200.583C81.0045 200.715 80.873 201.416 80.873 202.117C80.873 203.213 81.0045 203.345 82.3196 203.345C83.8976 203.345 85.2564 202.249 85.2564 201.021C85.2564 200.452 84.8181 200.276 83.3716 200.276C82.3196 200.276 81.3114 200.408 81.1799 200.583Z" fill="#324F5D"/>
<path d="M173.45 200.671C173.099 200.89 172.924 201.679 173.012 202.731C173.143 204.353 173.231 204.44 174.809 204.572C176.781 204.747 177.746 204.09 177.746 202.643C177.746 200.934 175.028 199.663 173.45 200.671Z" fill="#324F5D"/>
<path d="M105.946 206.413C104.237 207.465 102.79 209.7 102.79 211.366C102.79 214.347 105.376 217.503 108.225 218.073C110.286 218.423 113.485 216.977 114.625 215.092C115.721 213.295 115.765 210.314 114.757 208.605C113.135 205.799 108.751 204.703 105.946 206.413Z" fill="#324F5D"/>
<path d="M145.615 206.325C141.1 209.35 141.144 214.61 145.747 217.722C146.93 218.511 147.675 218.73 148.903 218.555C151.095 218.248 153.505 216.714 154.382 215.048C155.39 213.119 155.259 209.7 154.207 208.21C152.366 205.712 148.026 204.747 145.615 206.325Z" fill="#324F5D"/>
<path d="M180.332 207.596C177.395 207.772 177.395 207.772 177.176 209.174C177.045 209.963 177.088 212.594 177.22 215.048L177.439 219.519L180.77 219.256C182.611 219.125 184.146 218.993 184.189 218.949C184.233 218.906 184.365 216.276 184.452 213.076C184.584 207.991 184.54 207.29 183.926 207.377C183.532 207.421 181.91 207.509 180.332 207.596Z" fill="#324F5D"/>
<path d="M73.1584 210.402C73.2899 211.892 73.4214 214.522 73.4214 216.232V219.344H77.1473H80.8731V214.215C80.8731 211.41 81.0046 208.824 81.1361 208.429C81.3553 207.816 80.8293 207.728 77.1473 207.728H72.8516L73.1584 210.402Z" fill="#324F5D"/>
<path d="M126.592 217.24C126.066 217.328 124.838 218.336 123.83 219.432L121.989 221.404L122.252 225.218C122.384 227.278 122.647 234.16 122.778 240.472L123.085 252H129.046H135.008V241.392C135.008 235.519 135.096 228.549 135.227 225.831C135.446 221.097 135.402 220.922 134.35 219.738C132.378 217.591 129.529 216.67 126.592 217.24Z" fill="#324F5D"/>
<path d="M106.253 222.368C104.149 223.596 104.017 224.429 104.368 237.184L104.675 248.932L108.97 248.975C111.381 249.019 113.661 249.063 114.099 249.107C114.8 249.151 114.844 248.318 114.976 238.192C115.107 226.445 114.888 224.779 113.091 223.07C111.732 221.799 107.962 221.404 106.253 222.368Z" fill="#324F5D"/>
<path d="M144.871 222.5C142.022 223.946 141.671 225.305 142.109 233.59C142.285 237.579 142.46 242.839 142.46 245.337V249.808L144.432 249.545C145.528 249.414 147.983 249.282 149.912 249.238L153.418 249.151L153.374 237.272C153.331 229.338 153.111 225.086 152.805 224.429C151.665 222.324 147.325 221.272 144.871 222.5Z" fill="#324F5D"/>
<path d="M51.0123 311.984L51.8402 314.257C51.9451 314.547 52.2206 314.74 52.5295 314.74H57.925C58.2325 314.74 58.508 314.547 58.6144 314.257L59.4422 311.984C59.6157 311.506 59.2615 311 58.7528 311H51.7032C51.1931 311 50.8389 311.506 51.0123 311.984Z" fill="#FF647D"/>
<path d="M64.4105 326.095C64.4076 326.067 64.4061 326.039 64.4032 326.012C64.3478 324.844 64.0796 323.745 63.5928 322.718C63.1294 321.737 62.5158 320.873 61.7623 320.118C61.7127 320.068 61.669 320.016 61.6195 319.968C60.7975 319.179 59.8428 318.56 58.757 318.109C57.6712 317.659 56.5024 317.435 55.2533 317.435C55.2358 317.435 55.2198 317.438 55.2038 317.438C55.1863 317.438 55.1703 317.435 55.1542 317.435C53.9198 317.435 52.748 317.668 51.6374 318.134C51.3838 318.241 51.139 318.359 50.8999 318.483C50.607 318.634 50.3301 318.805 50.0604 318.984C50.0182 319.012 49.9759 319.041 49.9336 319.068C49.852 319.124 49.7675 319.176 49.6873 319.235C49.3478 319.479 49.0184 319.739 48.7138 320.027C48.6788 320.061 48.6482 320.099 48.6132 320.132C47.8233 320.906 47.1922 321.801 46.7273 322.824C46.6354 323.025 46.5611 323.231 46.4882 323.438C46.1676 324.327 46 325.258 46 326.238V326.316V329.169V337.6V343.54V346.393C46 346.747 46.07 347.083 46.2099 347.406C46.3498 347.728 46.5422 348.005 46.7899 348.238C47.0377 348.471 47.3248 348.656 47.6542 348.793C47.9792 348.929 48.3217 348.996 48.6788 348.997C48.6832 348.997 48.6861 348.999 48.6904 348.999C49.0679 348.999 49.4192 348.93 49.7398 348.793C50.0604 348.656 50.3403 348.472 50.5793 348.238C50.6245 348.194 50.658 348.142 50.6988 348.095C50.8781 347.892 51.0326 347.668 51.1462 347.406C51.2862 347.083 51.3561 346.747 51.3561 346.393V343.54V337.6V329.169V326.316V326.262C51.3561 325.764 51.4581 325.298 51.6636 324.863C51.8691 324.429 52.149 324.047 52.5031 323.718C52.8383 323.407 53.2275 323.165 53.6647 322.983C53.688 322.973 53.7084 322.96 53.7303 322.95C53.7871 322.926 53.8483 322.918 53.9066 322.897C53.997 322.867 54.0888 322.834 54.1806 322.808C54.2725 322.781 54.3657 322.757 54.4605 322.74C54.5057 322.731 54.5538 322.734 54.5989 322.727C54.8015 322.696 55.007 322.671 55.2198 322.671C55.7416 322.673 56.2269 322.76 56.6758 322.935C57.1276 323.113 57.5313 323.358 57.8855 323.671C58.2396 323.984 58.5224 324.359 58.7366 324.793C58.7978 324.917 58.8328 325.053 58.878 325.184C58.9902 325.519 59.0689 325.867 59.0806 326.241V337.601C59.0806 337.604 59.082 337.607 59.082 337.61V343.542V346.394C59.082 346.748 59.152 347.085 59.2919 347.407C59.4318 347.729 59.6242 348.006 59.872 348.239C60.1197 348.472 60.4069 348.658 60.7362 348.795C61.0656 348.932 61.411 349 61.7725 349C61.7769 349 61.7798 348.999 61.7841 348.999C62.1573 348.997 62.5041 348.93 62.8204 348.795C63.141 348.658 63.4209 348.474 63.6599 348.239C63.8974 348.006 64.0869 347.729 64.2268 347.407C64.3667 347.085 64.4367 346.748 64.4367 346.394V343.542V337.601V329.17V326.318V326.287C64.4367 326.255 64.4323 326.219 64.425 326.178C64.4134 326.149 64.4119 326.121 64.4105 326.095Z" fill="#FF647D"/>
<path d="M77.5479 326.179C77.5406 326.149 77.5391 326.121 77.5391 326.095C77.5362 326.067 77.5347 326.039 77.5318 326.012C77.4764 324.844 77.2083 323.745 76.7215 322.718C76.2274 321.673 75.5701 320.756 74.7481 319.968C73.9261 319.179 72.9715 318.56 71.8857 318.109C70.7999 317.659 69.631 317.435 68.382 317.435C67.098 317.435 65.8854 317.677 64.7413 318.159C64.6145 318.213 64.4906 318.27 64.3696 318.33C65.11 319.173 65.7309 320.111 66.222 321.148C66.496 321.727 66.7161 322.323 66.8852 322.936C67.3443 322.759 67.8267 322.668 68.3324 322.668C68.8586 322.668 69.3483 322.757 69.8001 322.934C70.2519 323.111 70.6556 323.356 71.0098 323.67C71.3639 323.983 71.6467 324.358 71.8609 324.792C72.0737 325.226 72.1903 325.701 72.2063 326.214V326.31C72.2063 326.313 72.2063 326.315 72.2063 326.316V329.169V338.506C72.2063 338.861 72.2763 339.197 72.4162 339.519C72.5561 339.841 72.7485 340.118 72.9963 340.352C73.244 340.585 73.5311 340.77 73.8605 340.907C74.1899 341.044 74.5353 341.112 74.8968 341.112C75.2742 341.112 75.6255 341.044 75.9461 340.907C76.2668 340.77 76.5466 340.586 76.7856 340.352C77.0232 340.118 77.2127 339.841 77.3526 339.519C77.4925 339.197 77.5624 338.861 77.5624 338.506V329.169V326.316V326.286C77.5595 326.257 77.5566 326.22 77.5479 326.179Z" fill="#FF647D"/>
<path d="M74.93 348.999C76.3829 348.999 77.5607 347.821 77.5607 346.368C77.5607 344.915 76.3829 343.737 74.93 343.737C73.4771 343.737 72.2993 344.915 72.2993 346.368C72.2993 347.821 73.4771 348.999 74.93 348.999Z" fill="#FF647D"/>
<path d="M76.648 349V312.376H80.44V326.2C81.624 325.336 83.032 324.584 84.664 323.944C86.328 323.272 88.056 322.936 89.848 322.936C91.64 322.936 93.112 323.32 94.264 324.088C95.448 324.856 96.312 325.896 96.856 327.208C97.432 328.52 97.72 329.976 97.72 331.576V349H93.928V331.96C93.928 330.872 93.704 329.912 93.256 329.08C92.84 328.248 92.232 327.592 91.432 327.112C90.632 326.632 89.672 326.392 88.552 326.392C87.496 326.392 86.52 326.504 85.624 326.728C84.728 326.92 83.864 327.208 83.032 327.592C82.2 327.944 81.336 328.376 80.44 328.888V349H76.648ZM115.043 349.288C113.187 349.288 111.555 349.096 110.147 348.712C108.771 348.328 107.619 347.656 106.691 346.696C105.763 345.736 105.075 344.408 104.627 342.712C104.179 340.984 103.955 338.792 103.955 336.136C103.955 333.448 104.179 331.256 104.627 329.56C105.075 327.832 105.763 326.504 106.691 325.576C107.619 324.616 108.771 323.96 110.147 323.608C111.555 323.224 113.187 323.032 115.043 323.032C116.899 323.032 118.515 323.224 119.891 323.608C121.299 323.992 122.467 324.664 123.395 325.624C124.323 326.552 125.011 327.88 125.459 329.608C125.939 331.304 126.179 333.48 126.179 336.136C126.179 338.824 125.939 341.032 125.459 342.76C125.011 344.456 124.323 345.784 123.395 346.744C122.499 347.672 121.347 348.328 119.939 348.712C118.531 349.096 116.899 349.288 115.043 349.288ZM115.043 346.168C116.227 346.168 117.267 346.056 118.163 345.832C119.091 345.608 119.859 345.16 120.467 344.488C121.075 343.816 121.539 342.808 121.859 341.464C122.179 340.12 122.339 338.344 122.339 336.136C122.339 333.896 122.179 332.12 121.859 330.808C121.539 329.496 121.075 328.504 120.467 327.832C119.859 327.16 119.091 326.712 118.163 326.488C117.267 326.264 116.227 326.152 115.043 326.152C113.827 326.152 112.771 326.264 111.875 326.488C110.979 326.712 110.227 327.16 109.619 327.832C109.011 328.504 108.547 329.496 108.227 330.808C107.907 332.12 107.747 333.896 107.747 336.136C107.747 338.344 107.907 340.12 108.227 341.464C108.547 342.808 109.011 343.816 109.619 344.488C110.227 345.16 110.979 345.608 111.875 345.832C112.771 346.056 113.827 346.168 115.043 346.168ZM132.57 349V323.368H135.546L136.362 326.2C137.642 325.304 139.066 324.536 140.634 323.896C142.234 323.256 144.01 322.936 145.962 322.936C147.562 322.936 148.922 323.304 150.042 324.04C151.194 324.744 152.058 325.64 152.634 326.728C153.434 326.152 154.394 325.576 155.514 325C156.666 324.424 157.882 323.944 159.162 323.56C160.474 323.144 161.738 322.936 162.954 322.936C164.81 322.936 166.33 323.336 167.514 324.136C168.698 324.904 169.562 325.96 170.106 327.304C170.682 328.616 170.97 330.088 170.97 331.72V349H167.178V332.008C167.178 330.92 166.954 329.96 166.506 329.128C166.09 328.264 165.482 327.592 164.682 327.112C163.882 326.632 162.906 326.392 161.754 326.392C160.314 326.392 158.842 326.664 157.338 327.208C155.834 327.752 154.442 328.408 153.162 329.176C153.322 329.656 153.434 330.136 153.498 330.616C153.594 331.064 153.642 331.544 153.642 332.056V349H149.85V332.008C149.85 330.92 149.626 329.96 149.178 329.128C148.762 328.264 148.154 327.592 147.354 327.112C146.586 326.632 145.626 326.392 144.474 326.392C143.418 326.392 142.426 326.504 141.498 326.728C140.602 326.92 139.738 327.208 138.906 327.592C138.106 327.944 137.258 328.376 136.362 328.888V349H132.57ZM187.878 349.288C185.19 349.288 183.062 348.888 181.493 348.088C179.958 347.288 178.854 345.928 178.182 344.008C177.51 342.088 177.174 339.464 177.174 336.136C177.174 332.744 177.51 330.104 178.182 328.216C178.886 326.296 180.022 324.952 181.59 324.184C183.158 323.416 185.27 323.032 187.926 323.032C190.198 323.032 192.038 323.288 193.446 323.8C194.886 324.312 195.942 325.192 196.614 326.44C197.318 327.656 197.67 329.352 197.67 331.528C197.67 333.032 197.366 334.248 196.758 335.176C196.182 336.072 195.334 336.728 194.214 337.144C193.126 337.528 191.83 337.72 190.326 337.72H180.966C180.998 339.8 181.222 341.48 181.638 342.76C182.054 344.008 182.806 344.92 183.894 345.496C185.014 346.04 186.646 346.312 188.79 346.312H197.046V348.616C195.574 348.808 194.134 348.968 192.726 349.096C191.318 349.224 189.702 349.288 187.878 349.288ZM180.918 335.224H190.038C191.478 335.224 192.534 334.968 193.206 334.456C193.91 333.912 194.262 332.952 194.262 331.576C194.262 330.104 194.038 328.968 193.59 328.168C193.174 327.336 192.502 326.76 191.574 326.44C190.678 326.088 189.462 325.912 187.926 325.912C186.134 325.912 184.726 326.184 183.702 326.728C182.678 327.24 181.958 328.168 181.542 329.512C181.126 330.856 180.918 332.76 180.918 335.224Z" fill="#324F5D"/>
</svg>
