<svg width="20" height="25" viewBox="0 0 20 25" fill="none" xmlns="http://www.w3.org/2000/svg">
<path d="M19.0476 25H0V22.619C0 21.0404 0.627124 19.5264 1.74341 18.4101C2.8597 17.2938 4.37371 16.6667 5.95238 16.6667H13.0952C14.6739 16.6667 16.1879 17.2938 17.3042 18.4101C18.4205 19.5264 19.0476 21.0404 19.0476 22.619V25ZM9.52381 14.2857C8.5858 14.2857 7.65697 14.101 6.79036 13.742C5.92375 13.383 5.13632 12.8569 4.47305 12.1936C3.80977 11.5303 3.28363 10.7429 2.92467 9.87631C2.56571 9.0097 2.38095 8.08087 2.38095 7.14286C2.38095 6.20484 2.56571 5.27602 2.92467 4.4094C3.28363 3.54279 3.80977 2.75537 4.47305 2.09209C5.13632 1.42882 5.92375 0.90268 6.79036 0.543718C7.65697 0.184755 8.5858 -1.39775e-08 9.52381 0C11.4182 2.82288e-08 13.235 0.752549 14.5746 2.09209C15.9141 3.43164 16.6667 5.24845 16.6667 7.14286C16.6667 9.03726 15.9141 10.8541 14.5746 12.1936C13.235 13.5332 11.4182 14.2857 9.52381 14.2857Z" fill="white"/>
</svg>
