<svg width="25" height="25" viewBox="0 0 25 25" fill="none" xmlns="http://www.w3.org/2000/svg">
<path d="M12.5 25C5.59625 25 0 19.4037 0 12.5C0 5.59625 5.59625 0 12.5 0C19.4037 0 25 5.59625 25 12.5C25 19.4037 19.4037 25 12.5 25ZM12.5 22.5C15.1522 22.5 17.6957 21.4464 19.5711 19.5711C21.4464 17.6957 22.5 15.1522 22.5 12.5C22.5 9.84783 21.4464 7.3043 19.5711 5.42893C17.6957 3.55357 15.1522 2.5 12.5 2.5C9.84783 2.5 7.3043 3.55357 5.42893 5.42893C3.55357 7.3043 2.5 9.84783 2.5 12.5C2.5 15.1522 3.55357 17.6957 5.42893 19.5711C7.3043 21.4464 9.84783 22.5 12.5 22.5ZM8.125 15H15C15.1658 15 15.3247 14.9342 15.4419 14.8169C15.5592 14.6997 15.625 14.5408 15.625 14.375C15.625 14.2092 15.5592 14.0503 15.4419 13.9331C15.3247 13.8158 15.1658 13.75 15 13.75H10C9.1712 13.75 8.37634 13.4208 7.79029 12.8347C7.20424 12.2487 6.875 11.4538 6.875 10.625C6.875 9.7962 7.20424 9.00134 7.79029 8.41529C8.37634 7.82924 9.1712 7.5 10 7.5H11.25V5H13.75V7.5H16.875V10H10C9.83424 10 9.67527 10.0658 9.55806 10.1831C9.44085 10.3003 9.375 10.4592 9.375 10.625C9.375 10.7908 9.44085 10.9497 9.55806 11.0669C9.67527 11.1842 9.83424 11.25 10 11.25H15C15.8288 11.25 16.6237 11.5792 17.2097 12.1653C17.7958 12.7513 18.125 13.5462 18.125 14.375C18.125 15.2038 17.7958 15.9987 17.2097 16.5847C16.6237 17.1708 15.8288 17.5 15 17.5H13.75V20H11.25V17.5H8.125V15Z" fill="white"/>
</svg>
