<svg width="29" height="25" viewBox="0 0 29 25" fill="none" xmlns="http://www.w3.org/2000/svg">
<path d="M4.91051 20.7173C1.92898 18.5753 0 15.3409 0 11.8011C0 5.28835 6.35653 0 14.2045 0C22.0526 0 28.4091 5.28835 28.4091 11.8011C28.4091 18.3125 22.0526 23.6009 14.2045 23.6009C12.6317 23.6103 11.0659 23.3897 9.55682 22.946C9.42614 22.9034 9.25 22.9034 9.11932 22.9034C8.85653 22.9034 8.59375 22.9886 8.37358 23.1207L5.26136 24.9119C5.18146 24.9606 5.09166 24.9907 4.99858 25C4.87121 24.9993 4.74922 24.9485 4.65889 24.8587C4.56856 24.7689 4.51711 24.6472 4.51562 24.5199C4.51562 24.3878 4.55824 24.3011 4.60369 24.169C4.64631 24.1264 5.04119 22.6832 5.26136 21.8097C5.26136 21.7216 5.30398 21.5909 5.30398 21.5028C5.30398 21.1534 5.1733 20.892 4.91051 20.7173ZM9.47017 9.81676C10.4886 9.81676 11.2955 9.00994 11.2955 7.99148C11.2955 6.97159 10.4886 6.16477 9.47017 6.16477C8.45028 6.16477 7.64489 6.97159 7.64489 7.99148C7.64489 9.00994 8.45028 9.81676 9.47017 9.81676ZM18.9389 9.81676C19.9588 9.81676 20.7642 9.00994 20.7642 7.99148C20.7642 6.97159 19.9588 6.16477 18.9389 6.16477C17.9205 6.16477 17.1136 6.97159 17.1136 7.99148C17.1136 9.00994 17.9205 9.81676 18.9389 9.81676Z" fill="#324F5D" fill-opacity="0.95"/>
</svg>
