<svg width="25" height="25" viewBox="0 0 25 25" fill="none" xmlns="http://www.w3.org/2000/svg">
<path d="M14.5832 14.8457V17.0228C13.6404 16.6894 12.6314 16.5872 11.6409 16.7246C10.6504 16.862 9.70734 17.2351 8.89091 17.8126C8.07449 18.39 7.40853 19.1549 6.94896 20.043C6.4894 20.9311 6.24965 21.9165 6.24984 22.9165L4.1665 22.9155C4.16618 21.6435 4.45705 20.3883 5.01682 19.2461C5.57658 18.1039 6.3904 17.105 7.3959 16.3259C8.4014 15.5469 9.5719 15.0083 10.8177 14.7516C12.0635 14.4948 13.3516 14.5277 14.5832 14.8457ZM12.4998 13.5415C9.04671 13.5415 6.24984 10.7446 6.24984 7.2915C6.24984 3.83838 9.04671 1.0415 12.4998 1.0415C15.953 1.0415 18.7498 3.83838 18.7498 7.2915C18.7498 10.7446 15.953 13.5415 12.4998 13.5415ZM12.4998 11.4582C14.8019 11.4582 16.6665 9.59359 16.6665 7.2915C16.6665 4.98942 14.8019 3.12484 12.4998 3.12484C10.1978 3.12484 8.33317 4.98942 8.33317 7.2915C8.33317 9.59359 10.1978 11.4582 12.4998 11.4582ZM20.8332 17.7082H23.9582V19.7915H20.8332V23.4373L15.6248 18.7498L20.8332 14.0623V17.7082Z" fill="white"/>
</svg>
