<svg width="40" height="40" viewBox="0 0 40 40" fill="none" xmlns="http://www.w3.org/2000/svg">
<g clip-path="url(#clip0_1612_1067)">
<path d="M20 0C8.95374 0 0 8.95374 0 20C0 31.045 8.95374 40 20 40C31.045 40 40 31.0463 40 20C40 8.95374 31.045 0 20 0ZM20 37.5C10.335 37.5 2.50004 29.665 2.50004 20C2.50004 10.335 10.335 2.50004 20 2.50004C29.665 2.50004 37.5 10.335 37.5 20C37.5 29.665 29.665 37.5 20 37.5Z" fill="white"/>
<path d="M28.4111 26.5888L21.826 20.0025L28.3736 13.5088C28.8673 13.0201 28.8673 12.2288 28.3736 11.7413C27.8811 11.2538 27.0811 11.2538 26.5886 11.7413L20.0498 18.2263L13.4135 11.5888C12.921 11.0938 12.1211 11.0938 11.6286 11.5888C11.1361 12.0825 11.1361 12.885 11.6286 13.3787L18.2549 20.0063L11.5911 26.615C11.0986 27.1038 11.0986 27.895 11.5911 28.3825C12.0836 28.8713 12.8835 28.8713 13.3773 28.3825L20.0322 21.7825L26.6272 28.3775C27.1198 28.8725 27.9197 28.8725 28.4122 28.3775C28.9036 27.885 28.9036 27.0838 28.4111 26.5888Z" fill="white"/>
</g>
<defs>
<clipPath id="clip0_1612_1067">
<rect width="40" height="40" fill="white"/>
</clipPath>
</defs>
</svg>
