<svg width="155" height="64" viewBox="0 0 155 64" fill="none" xmlns="http://www.w3.org/2000/svg">
<path d="M5.01235 10.9838L5.84018 13.2574C5.94511 13.5474 6.22057 13.7398 6.52955 13.7398H11.925C12.2325 13.7398 12.508 13.5474 12.6144 13.2574L13.4422 10.9838C13.6157 10.5057 13.2615 10 12.7528 10H5.70317C5.19307 10 4.83891 10.5057 5.01235 10.9838Z" fill="#FF647D"/>
<path d="M18.4105 25.0947C18.4076 25.067 18.4061 25.0393 18.4032 25.0116C18.3478 23.8442 18.0796 22.7453 17.5928 21.7178C17.1294 20.737 16.5158 19.8727 15.7623 19.1177C15.7127 19.0682 15.669 19.0157 15.6195 18.9676C14.7975 18.1791 13.8428 17.5597 12.757 17.1094C11.6712 16.659 10.5024 16.4346 9.25333 16.4346C9.23584 16.4346 9.2198 16.4375 9.20377 16.4375C9.18628 16.4375 9.17025 16.4346 9.15422 16.4346C7.91976 16.4346 6.74798 16.6678 5.6374 17.1341C5.38381 17.2405 5.13896 17.3586 4.89993 17.4825C4.60699 17.634 4.33007 17.8046 4.06044 17.9838C4.01818 18.0115 3.97591 18.0407 3.93365 18.0684C3.85203 18.1238 3.7675 18.1762 3.68734 18.2345C3.34775 18.4794 3.01837 18.7388 2.71376 19.0274C2.67879 19.0609 2.64818 19.0988 2.6132 19.1323C1.82326 19.9062 1.19219 20.8011 0.727264 21.8242C0.635445 22.0253 0.561113 22.2308 0.488241 22.4378C0.167603 23.3268 0 24.2581 0 25.2375V25.3163V28.1685V36.5998V42.5404V45.3926C0 45.7467 0.0699578 46.0834 0.209873 46.4055C0.349788 46.7276 0.542168 47.0045 0.789934 47.2377C1.0377 47.4709 1.32482 47.656 1.6542 47.793C1.97921 47.9285 2.32171 47.9956 2.67878 47.997C2.68316 47.997 2.68607 47.9985 2.69044 47.9985C3.06792 47.9985 3.41917 47.93 3.7398 47.793C4.06044 47.656 4.34027 47.4724 4.57929 47.2377C4.62448 47.194 4.658 47.1415 4.69881 47.0949C4.87807 46.8923 5.03256 46.6678 5.14624 46.4055C5.28616 46.0834 5.35612 45.7467 5.35612 45.3926V42.5404V36.5998V28.1685V25.3163V25.2623C5.35612 24.7639 5.45814 24.2975 5.66364 23.8632C5.86913 23.4289 6.14897 23.047 6.50313 22.7176C6.83834 22.4072 7.22748 22.1652 7.66471 21.9831C7.68803 21.9729 7.70843 21.9598 7.73029 21.9495C7.78713 21.9262 7.84835 21.9175 7.90665 21.8971C7.99701 21.8665 8.08882 21.8344 8.18064 21.8082C8.27246 21.7805 8.36574 21.7572 8.46047 21.7397C8.50566 21.7309 8.55375 21.7338 8.59893 21.7266C8.80152 21.696 9.00702 21.6712 9.21981 21.6712C9.74157 21.6726 10.2269 21.7601 10.6758 21.935C11.1276 22.1128 11.5313 22.3576 11.8855 22.671C12.2396 22.9843 12.5224 23.3589 12.7366 23.7932C12.7978 23.9171 12.8328 24.0526 12.878 24.1838C12.9902 24.519 13.0689 24.8674 13.0806 25.2405V36.6013C13.0806 36.6042 13.082 36.6071 13.082 36.61V42.5418V45.394C13.082 45.7482 13.152 46.0849 13.2919 46.407C13.4318 46.7291 13.6242 47.006 13.872 47.2392C14.1197 47.4724 14.4069 47.6575 14.7362 47.7945C15.0656 47.9315 15.411 47.9999 15.7725 47.9999C15.7769 47.9999 15.7798 47.9985 15.7841 47.9985C16.1572 47.997 16.5041 47.93 16.8204 47.7945C17.141 47.6575 17.4209 47.4738 17.6599 47.2392C17.8974 47.006 18.0869 46.7291 18.2268 46.407C18.3667 46.0849 18.4367 45.7482 18.4367 45.394V42.5418V36.6013V28.1699V25.3177V25.2871C18.4367 25.255 18.4323 25.2186 18.425 25.1778C18.4134 25.1486 18.4119 25.121 18.4105 25.0947Z" fill="#FF647D"/>
<path d="M31.5479 25.1792C31.5406 25.1486 31.5391 25.121 31.5391 25.0947C31.5362 25.067 31.5347 25.0393 31.5318 25.0116C31.4764 23.8442 31.2083 22.7453 30.7215 21.7178C30.2274 20.6728 29.5701 19.7561 28.7481 18.9676C27.9261 18.1791 26.9715 17.5597 25.8857 17.1094C24.7999 16.659 23.631 16.4346 22.382 16.4346C21.098 16.4346 19.8854 16.6765 18.7413 17.1589C18.6145 17.2128 18.4906 17.2697 18.3696 17.3294C19.11 18.1733 19.7309 19.1104 20.222 20.1481C20.496 20.7267 20.7161 21.3228 20.8852 21.9364C21.3443 21.7586 21.8267 21.6683 22.3324 21.6683C22.8586 21.6683 23.3483 21.7572 23.8001 21.9335C24.2519 22.1113 24.6556 22.3562 25.0098 22.6695C25.3639 22.9829 25.6467 23.3574 25.8609 23.7918C26.0737 24.2261 26.1903 24.7012 26.2063 25.2142V25.3104C26.2063 25.3133 26.2063 25.3148 26.2063 25.3162V28.1685V37.5063C26.2063 37.8605 26.2763 38.1972 26.4162 38.5193C26.5561 38.8414 26.7485 39.1183 26.9963 39.3515C27.244 39.5847 27.5311 39.7697 27.8605 39.9067C28.1899 40.0437 28.5353 40.1122 28.8968 40.1122C29.2742 40.1122 29.6255 40.0437 29.9461 39.9067C30.2668 39.7697 30.5466 39.5861 30.7856 39.3515C31.0232 39.1183 31.2127 38.8414 31.3526 38.5193C31.4925 38.1972 31.5624 37.8605 31.5624 37.5063V28.1685V25.3162V25.2856C31.5595 25.2565 31.5566 25.2201 31.5479 25.1792Z" fill="#FF647D"/>
<path d="M28.93 47.9987C30.3829 47.9987 31.5607 46.8209 31.5607 45.368C31.5607 43.9151 30.3829 42.7373 28.93 42.7373C27.4771 42.7373 26.2993 43.9151 26.2993 45.368C26.2993 46.8209 27.4771 47.9987 28.93 47.9987Z" fill="#FF647D"/>
<path d="M30.648 48V11.376H34.44V25.2C35.624 24.336 37.032 23.584 38.664 22.944C40.328 22.272 42.056 21.936 43.848 21.936C45.64 21.936 47.112 22.32 48.264 23.088C49.448 23.856 50.312 24.896 50.856 26.208C51.432 27.52 51.72 28.976 51.72 30.576V48H47.928V30.96C47.928 29.872 47.704 28.912 47.256 28.08C46.84 27.248 46.232 26.592 45.432 26.112C44.632 25.632 43.672 25.392 42.552 25.392C41.496 25.392 40.52 25.504 39.624 25.728C38.728 25.92 37.864 26.208 37.032 26.592C36.2 26.944 35.336 27.376 34.44 27.888V48H30.648ZM69.0428 48.288C67.1868 48.288 65.5548 48.096 64.1468 47.712C62.7708 47.328 61.6188 46.656 60.6908 45.696C59.7628 44.736 59.0748 43.408 58.6268 41.712C58.1788 39.984 57.9548 37.792 57.9548 35.136C57.9548 32.448 58.1788 30.256 58.6268 28.56C59.0748 26.832 59.7628 25.504 60.6908 24.576C61.6188 23.616 62.7708 22.96 64.1468 22.608C65.5548 22.224 67.1868 22.032 69.0428 22.032C70.8988 22.032 72.5148 22.224 73.8908 22.608C75.2988 22.992 76.4668 23.664 77.3948 24.624C78.3228 25.552 79.0108 26.88 79.4587 28.608C79.9388 30.304 80.1788 32.48 80.1788 35.136C80.1788 37.824 79.9388 40.032 79.4587 41.76C79.0108 43.456 78.3228 44.784 77.3948 45.744C76.4988 46.672 75.3468 47.328 73.9388 47.712C72.5308 48.096 70.8988 48.288 69.0428 48.288ZM69.0428 45.168C70.2268 45.168 71.2668 45.056 72.1628 44.832C73.0908 44.608 73.8588 44.16 74.4668 43.488C75.0748 42.816 75.5388 41.808 75.8588 40.464C76.1788 39.12 76.3388 37.344 76.3388 35.136C76.3388 32.896 76.1788 31.12 75.8588 29.808C75.5388 28.496 75.0748 27.504 74.4668 26.832C73.8588 26.16 73.0908 25.712 72.1628 25.488C71.2668 25.264 70.2268 25.152 69.0428 25.152C67.8268 25.152 66.7708 25.264 65.8748 25.488C64.9788 25.712 64.2268 26.16 63.6188 26.832C63.0108 27.504 62.5468 28.496 62.2268 29.808C61.9068 31.12 61.7468 32.896 61.7468 35.136C61.7468 37.344 61.9068 39.12 62.2268 40.464C62.5468 41.808 63.0108 42.816 63.6188 43.488C64.2268 44.16 64.9788 44.608 65.8748 44.832C66.7708 45.056 67.8268 45.168 69.0428 45.168ZM86.5699 48V22.368H89.5459L90.3619 25.2C91.6419 24.304 93.0659 23.536 94.6339 22.896C96.2339 22.256 98.0099 21.936 99.9619 21.936C101.562 21.936 102.922 22.304 104.042 23.04C105.194 23.744 106.058 24.64 106.634 25.728C107.434 25.152 108.394 24.576 109.514 24C110.666 23.424 111.882 22.944 113.162 22.56C114.474 22.144 115.738 21.936 116.954 21.936C118.81 21.936 120.33 22.336 121.514 23.136C122.698 23.904 123.562 24.96 124.106 26.304C124.682 27.616 124.97 29.088 124.97 30.72V48H121.178V31.008C121.178 29.92 120.954 28.96 120.506 28.128C120.09 27.264 119.482 26.592 118.682 26.112C117.882 25.632 116.906 25.392 115.754 25.392C114.314 25.392 112.842 25.664 111.338 26.208C109.834 26.752 108.442 27.408 107.162 28.176C107.322 28.656 107.434 29.136 107.498 29.616C107.594 30.064 107.642 30.544 107.642 31.056V48H103.85V31.008C103.85 29.92 103.626 28.96 103.178 28.128C102.762 27.264 102.154 26.592 101.354 26.112C100.586 25.632 99.6259 25.392 98.4739 25.392C97.4179 25.392 96.4259 25.504 95.4979 25.728C94.6019 25.92 93.7379 26.208 92.9059 26.592C92.1059 26.944 91.2579 27.376 90.3619 27.888V48H86.5699ZM141.878 48.288C139.19 48.288 137.062 47.888 135.493 47.088C133.958 46.288 132.854 44.928 132.182 43.008C131.51 41.088 131.174 38.464 131.174 35.136C131.174 31.744 131.51 29.104 132.182 27.216C132.886 25.296 134.022 23.952 135.59 23.184C137.158 22.416 139.27 22.032 141.926 22.032C144.198 22.032 146.038 22.288 147.446 22.8C148.886 23.312 149.942 24.192 150.614 25.44C151.318 26.656 151.67 28.352 151.67 30.528C151.67 32.032 151.366 33.248 150.758 34.176C150.182 35.072 149.334 35.728 148.214 36.144C147.126 36.528 145.83 36.72 144.326 36.72H134.966C134.998 38.8 135.222 40.48 135.638 41.76C136.054 43.008 136.806 43.92 137.894 44.496C139.014 45.04 140.646 45.312 142.79 45.312H151.046V47.616C149.574 47.808 148.134 47.968 146.726 48.096C145.318 48.224 143.702 48.288 141.878 48.288ZM134.918 34.224H144.038C145.478 34.224 146.534 33.968 147.206 33.456C147.91 32.912 148.262 31.952 148.262 30.576C148.262 29.104 148.038 27.968 147.59 27.168C147.174 26.336 146.502 25.76 145.574 25.44C144.678 25.088 143.462 24.912 141.926 24.912C140.134 24.912 138.726 25.184 137.702 25.728C136.678 26.24 135.958 27.168 135.542 28.512C135.126 29.856 134.918 31.76 134.918 34.224Z" fill="#324F5D"/>
</svg>
