<svg width="213" height="59" viewBox="0 0 213 59" fill="none" xmlns="http://www.w3.org/2000/svg">
<path d="M168.525 0.579426C165.146 1.41302 162.879 2.75603 160.195 5.48836C156.122 9.56369 154.641 13.1759 152.328 25.1704C152.05 26.6986 151.587 28.7826 151.402 29.8015C149.597 37.9058 149.551 40.2677 151.171 41.8422C151.957 42.6295 152.79 43 153.947 43C158.344 43 166.488 36.5165 164.545 34.5251C164.406 34.3862 162.694 35.4977 160.796 37.0259C158.853 38.5542 157.094 39.7119 156.816 39.6193C155.845 39.2951 156.122 37.0722 158.575 25.263C161.722 10.212 161.722 10.2584 162.74 8.03544C164.637 3.86749 166.951 2.70972 171.394 3.63593L174.124 4.23797L175.744 2.66341C177.225 1.22778 177.271 1.04253 176.531 0.533115C175.605 -0.207855 171.394 -0.161545 168.525 0.579426Z" fill="#324F5D"/>
<path d="M78.8554 5.4421C76.8525 6.74737 74.8495 8.13684 74.3599 8.47368C73.2027 9.27368 72.535 11 73.3807 11C74.1374 11 81.4815 7.37895 82.1046 6.70526C82.7277 5.98947 83.3063 3 82.8167 3C82.5942 3.0421 80.8138 4.09474 78.8554 5.4421Z" fill="#324F5D"/>
<path d="M53.513 6.8887C50.866 7.90166 48.5442 9.97363 46.8724 12.7823C44.922 16.0514 44.2255 18.5378 42.5537 28.5293C41.7178 33.4099 41.3928 33.7783 40.3247 31.2919C39.8139 30.1408 38.0028 26.7336 36.2846 23.6947C32.8018 17.6169 28.158 8.3621 28.158 7.44122C28.158 6.65848 22.1675 6.70452 19.1027 7.53331C12.4156 9.28297 8.00404 13.5651 7.02885 19.2745C6.65735 21.5306 6.65735 21.5306 10.7439 19.7349C12.5549 18.9522 12.7407 18.6759 13.0658 16.7421C13.4373 14.0255 14.8768 11.9075 17.1987 10.388C18.8705 9.32902 21.5639 8.82254 22.214 9.42111C22.4926 9.74342 17.7095 33.0416 16.8736 35.4359C16.595 36.3107 15.4341 37.9222 14.366 38.9812C12.7871 40.5928 12.0906 40.9611 10.7439 40.9611C8.5613 40.9611 6.75023 39.9942 5.07847 37.9683L3.73177 36.3567L1.73495 38.3827C0.620448 39.4877 -0.122555 40.6388 0.016758 40.869C0.57401 41.7899 5.44997 43.2633 7.95761 43.2633C12.3692 43.2633 18.1275 39.9481 20.0778 36.2186C22.1211 32.3509 23.0034 30.4631 23.4678 28.7595C24.2572 25.9969 25.3717 20.1954 25.3717 18.722C25.3717 18.0313 25.5575 17.4788 25.7432 17.4788C25.9754 17.4788 27.0435 19.1824 28.158 21.2544C30.6192 25.9508 31.873 28.1609 32.3374 28.7595C32.8947 29.4962 36.0524 35.3438 38.3279 39.81L40.464 44L42.3215 43.4935C43.8075 43.0791 44.2719 42.6647 44.7363 41.3755C45.0613 40.5007 45.2935 39.3035 45.2935 38.6589C45.34 38.0143 45.7579 35.3898 46.2687 32.9034C46.7795 30.371 47.4297 27.148 47.6618 25.7667C47.9405 24.3853 48.3584 22.4055 48.5906 21.3925C48.7763 20.3795 49.2407 18.3076 49.5658 16.7881C51.0518 9.74342 54.4417 6.75057 58.3425 8.96067C60.0143 9.88155 60.5251 9.78946 61.4538 8.45419C62.1968 7.30309 62.1968 7.21101 61.361 6.61243C60.1072 5.69156 56.2064 5.82969 53.513 6.8887Z" fill="#324F5D"/>
<path d="M97.9093 16.6886C96.8906 17.1014 94.8996 17.8351 93.5105 18.3395C88.8339 20.0363 87.9541 20.5407 87.9541 21.5037C87.9541 22.2833 88.1393 22.375 89.5747 22.0998C92.9549 21.5037 92.816 21.412 92.7697 24.6679C92.7234 27.7404 91.1953 35.6737 88.5561 46.6796C86.6576 54.7506 82.9534 57.5479 77.7674 54.934C76.7487 54.4296 75.8689 54.0168 75.7763 54.0168C75.6837 54.0168 74.9429 54.9799 74.0631 56.1263C72.1184 58.8319 72.5351 59.1988 77.9063 58.9236C81.2864 58.7402 82.444 58.465 84.8981 57.2727C89.5284 55.0257 93.0938 50.6234 94.8996 44.937L95.5016 43.011H98.1408C103.003 43.011 106.938 41.1767 111.152 37.0036C114.301 33.8394 116.292 30.446 117.403 26.3646C118.283 23.1087 118.19 21.6413 117.125 19.3942C115.875 16.8721 113.652 16.0008 110.365 16.8262C107.124 17.6516 105.966 18.3854 103.095 21.412C101.66 22.9711 100.271 24.2093 100.039 24.2093C99.5299 24.2093 99.7615 22.2833 100.502 19.8987C101.104 17.9727 101.012 15.9549 100.363 16.0008C100.039 16.0008 98.928 16.3218 97.9093 16.6886ZM110.55 21.091C111.522 22.054 111.198 26.9149 109.994 30.2167C108.003 35.6737 106.522 37.8749 104.068 39.1589C101.382 40.5347 95.8257 39.3882 96.5202 37.5998C96.6591 37.187 96.937 36.1782 97.0759 35.4445C97.4926 33.1057 99.9004 29.4829 103.373 25.7685C106.244 22.696 108.883 20.5407 109.763 20.5407C109.902 20.5407 110.226 20.77 110.55 21.091Z" fill="#324F5D"/>
<path d="M69.3074 16.4241C63.8243 17.8795 60.941 19.7574 57.3959 24.3114C54.2762 28.349 53.0473 31.6354 53 35.8139C53 39.8045 53.4727 41.0721 55.4107 42.1989C58.8139 44.1238 63.4462 42.5275 67.7003 37.9735C69.1183 36.4712 70.489 35.0627 70.7254 34.9218C71.009 34.734 71.1981 35.9078 71.1981 38.1144C71.1981 40.9782 71.3399 41.6825 72.1434 42.2458C73.1833 43.044 76.6338 43.2318 77.9573 42.5745C78.3827 42.3397 79.3754 41.8703 80.1317 41.5416C82.0696 40.6496 85.4729 37.3632 85.851 36.0486C86.1347 35.0157 86.0874 34.9688 85.0475 35.5322C84.4803 35.8139 83.8658 36.2364 83.724 36.4242C83.1568 37.1284 78.9972 39.7106 78.3827 39.7106C78.0046 39.7106 77.5792 39.1942 77.4847 38.5838C77.2483 37.4101 79.8008 24.2645 81.1715 19.5696C81.597 18.0673 81.7388 16.8935 81.4551 16.6119C80.7461 15.9076 71.9071 15.7668 69.3074 16.4241ZM72.427 19.5227C72.8524 19.5227 73.5614 19.8513 73.9869 20.2269C74.6013 20.8842 74.6013 21.2128 73.9869 23.4194C72.7579 27.6448 67.1803 35.0627 63.3516 37.551C60.232 39.6167 59.6175 39.1472 59.6175 34.6402C59.6175 31.4476 60.1847 29.3819 61.9809 25.4852C64.1079 20.9311 66.944 18.8184 70.2054 19.2879C70.9617 19.4288 71.9543 19.5227 72.427 19.5227Z" fill="#324F5D"/>
<path d="M134.03 16.59C130.445 17.5692 128.351 18.8282 125.557 21.626C121.181 26.1024 119.273 31.4648 120.25 36.6874C120.623 38.5992 122.811 41.3037 124.859 42.3762C128.211 44.1015 135.194 42.0964 139.43 38.2262C147.763 30.5789 148.275 18.6417 140.361 16.4967C137.754 15.7973 136.776 15.8439 134.03 16.59ZM137.614 19.854C139.104 21.2529 139.616 24.4704 138.964 28.8536C138.033 35.0553 134.309 40.6509 131.144 40.6509C129.188 40.6043 128.257 39.9048 127.326 37.6666C124.952 32.0244 128.49 21.0198 133.285 18.9215C134.961 18.222 136.218 18.4552 137.614 19.854Z" fill="#324F5D"/>
<path d="M180.48 16.4033C177.502 17.2472 175.066 18.8413 172.449 21.7012C168.297 26.2022 167.305 28.312 167.079 33.1411C166.899 36.9856 166.944 37.3138 168.117 39.1892C171.185 43.9714 177.051 44.2527 185.263 40.0331C187.745 38.7672 188.557 38.1108 188.692 37.22C188.963 35.8135 188.331 35.7197 186.256 36.8918C183.684 38.3921 179.623 39.7987 177.818 39.7987C175.336 39.7987 173.261 37.22 173.261 34.0319V32.4378L176.329 31.8752C181.969 30.7968 186.346 27.9369 188.106 24.1861C189.234 21.7481 189.279 20.5291 188.331 18.6537C187.158 16.2626 184.09 15.4187 180.48 16.4033ZM182.375 19.9665C183.503 20.998 183.413 23.3891 182.15 25.3113C180.435 28.0306 175.697 29.8591 173.757 28.5933C173.216 28.2182 173.306 27.7025 174.389 25.5458C175.742 22.7327 177.231 21.0449 179.352 19.9196C181.067 18.9819 181.337 18.9819 182.375 19.9665Z" fill="#324F5D"/>
<path d="M204.044 16.5196C201.714 17.0802 197.921 19.9301 197.099 21.7054C195.911 24.2749 196.733 26.3305 200.709 30.7221C203.907 34.2727 204.318 34.9267 204.318 36.5151C204.318 40.0658 200.663 40.86 196.55 38.1503L194.037 36.5619L192.758 38.0569C190.336 40.9534 190.336 41.0001 193.261 42.1214C202.308 45.6253 212.954 37.9634 208.385 31.236C207.791 30.395 206.237 28.5263 204.912 27.0313C202.399 24.1815 201.851 23.0135 202.125 20.8177C202.216 19.6965 202.582 19.3227 204.136 18.8088C205.689 18.2482 206.146 18.2482 207.334 18.8088C208.385 19.3227 208.705 19.7899 208.796 21.2382C208.933 22.8266 209.025 22.9668 210.395 22.9668C211.812 22.9668 211.903 22.8266 212.452 20.4907C212.726 19.1359 213 17.8277 213 17.5474C213 16.9868 208.568 15.9123 206.877 16.0057C206.329 16.0524 205.049 16.286 204.044 16.5196Z" fill="#324F5D"/>
</svg>
